{"glyphs":{"0":{"ha":981,"x_min":0,"x_max":0,"o":"m 492 -28 b 932 504 763 -28 932 178 b 492 1035 932 831 763 1035 b 49 504 219 1035 49 831 b 492 -28 49 178 219 -28 z m 492 203 b 333 504 390 203 333 311 b 492 804 333 697 390 804 b 647 504 592 804 647 697 b 492 203 647 311 592 203 z "},"1":{"ha":676,"x_min":0,"x_max":0,"o":"m 35 797 l 35 521 l 308 699 l 308 0 l 586 0 l 586 1007 l 338 1007 z "},"2":{"ha":854,"x_min":0,"x_max":0,"o":"m 513 260 b 808 706 671 397 808 522 b 421 1035 808 908 640 1035 b 28 692 186 1035 47 903 l 285 692 b 422 807 301 765 351 807 b 536 699 503 807 536 757 b 325 429 536 621 450 539 l 38 178 l 38 0 l 813 0 l 813 208 l 454 208 z "},"3":{"ha":861,"x_min":0,"x_max":0,"o":"m 810 829 l 810 1007 l 38 1007 l 38 799 l 457 799 l 213 563 l 311 408 b 407 422 339 417 376 422 b 551 306 500 422 551 369 b 426 203 551 240 500 203 b 276 304 357 203 303 239 l 8 304 b 433 -26 43 94 193 -26 b 826 301 672 -26 826 110 b 560 594 826 450 729 564 z "},"4":{"ha":956,"x_min":0,"x_max":0,"o":"m 768 363 l 768 1007 l 529 1007 l 35 338 l 35 154 l 518 154 l 518 0 l 768 0 l 768 154 l 921 154 l 921 363 z m 518 632 l 518 363 l 322 363 z "},"5":{"ha":903,"x_min":0,"x_max":0,"o":"m 496 683 b 332 653 433 683 379 674 l 354 799 l 822 799 l 822 1007 l 143 1007 l 64 467 l 271 394 b 442 460 308 433 371 460 b 593 329 543 460 593 404 b 454 207 593 253 542 207 b 296 297 375 207 317 244 l 22 297 b 453 -21 72 75 246 -21 b 868 336 694 -21 868 110 b 496 683 868 544 725 683 z "},"6":{"ha":940,"x_min":0,"x_max":0,"o":"m 522 685 b 310 621 438 685 367 663 b 501 818 331 749 394 818 b 625 754 557 818 597 796 l 883 754 b 501 1035 835 929 708 1035 b 49 494 213 1035 49 825 b 492 -28 49 165 210 -28 b 906 326 731 -28 906 113 b 522 685 906 551 725 685 z m 489 189 b 336 333 394 189 336 249 b 489 479 336 419 394 479 b 639 335 578 479 639 419 b 489 189 639 250 581 189 z "},"7":{"ha":850,"x_min":0,"x_max":0,"o":"m 35 799 l 511 799 l 115 0 l 413 0 l 815 829 l 815 1007 l 35 1007 z "},"8":{"ha":956,"x_min":0,"x_max":0,"o":"m 739 526 b 875 751 825 575 875 653 b 478 1035 875 925 721 1035 b 81 751 235 1035 81 925 b 217 526 81 653 131 575 b 44 279 104 479 44 396 b 478 -26 44 83 199 -26 b 911 279 757 -26 911 83 b 739 526 911 396 851 479 z m 478 833 b 633 726 574 833 633 792 b 478 617 633 658 574 617 b 322 726 382 617 322 658 b 478 833 322 792 382 833 z m 478 175 b 319 294 381 175 319 221 b 478 418 319 371 381 418 b 636 294 575 418 636 371 b 478 175 636 221 575 175 z "},"9":{"ha":940,"x_min":0,"x_max":0,"o":"m 449 1035 b 35 681 210 1035 35 894 b 418 322 35 456 215 322 b 631 386 503 322 574 344 b 439 189 610 258 546 189 b 315 253 383 189 343 211 l 57 253 b 439 -28 106 78 232 -28 b 892 513 728 -28 892 182 b 449 1035 892 842 731 1035 z m 451 528 b 301 672 363 528 301 588 b 451 818 301 757 360 818 b 604 674 546 818 604 758 b 451 528 604 588 546 528 z "}," ":{"ha":250,"x_min":0,"x_max":0,"o":""},"A":{"ha":1089,"x_min":0,"x_max":0,"o":"m 1082 0 l 681 1007 l 408 1007 l 7 0 l 283 0 l 351 183 l 731 183 l 800 0 z m 540 692 l 644 413 l 436 413 z "},"Á":{"ha":1089,"x_min":0,"x_max":0,"o":"m 553 1336 l 419 1093 l 628 1093 l 863 1336 z m 1082 0 l 681 1007 l 408 1007 l 7 0 l 283 0 l 351 183 l 731 183 l 800 0 z m 540 692 l 644 413 l 436 413 z "},"Ă":{"ha":1089,"x_min":0,"x_max":0,"o":"m 540 1086 b 833 1332 729 1086 833 1171 l 624 1332 b 544 1249 621 1269 593 1249 b 463 1332 494 1249 465 1269 l 256 1332 b 540 1086 256 1171 376 1086 z m 1082 0 l 681 1007 l 408 1007 l 7 0 l 283 0 l 351 183 l 731 183 l 800 0 z m 540 692 l 644 413 l 436 413 z "},"Ǎ":{"ha":1089,"x_min":0,"x_max":0,"o":"m 860 1336 l 626 1336 l 544 1242 l 461 1336 l 228 1336 l 424 1093 l 665 1093 z m 1082 0 l 681 1007 l 408 1007 l 7 0 l 283 0 l 351 183 l 731 183 l 800 0 z m 540 692 l 644 413 l 436 413 z "},"Â":{"ha":1089,"x_min":0,"x_max":0,"o":"m 626 1093 l 860 1093 l 665 1336 l 424 1336 l 228 1093 l 461 1093 l 544 1188 z m 1082 0 l 681 1007 l 408 1007 l 7 0 l 283 0 l 351 183 l 731 183 l 800 0 z m 540 692 l 644 413 l 436 413 z "},"Ä":{"ha":1089,"x_min":0,"x_max":0,"o":"m 338 1085 b 471 1213 410 1085 471 1140 b 338 1342 471 1286 413 1342 b 204 1213 263 1342 204 1286 b 338 1085 204 1140 263 1085 z m 751 1085 b 883 1213 822 1085 883 1140 b 751 1342 883 1286 825 1342 b 617 1213 675 1342 617 1286 b 751 1085 617 1140 675 1085 z m 1082 0 l 681 1007 l 408 1007 l 7 0 l 283 0 l 351 183 l 731 183 l 800 0 z m 540 692 l 644 413 l 436 413 z "},"À":{"ha":1089,"x_min":0,"x_max":0,"o":"m 538 1336 l 228 1336 l 457 1093 l 665 1093 z m 1082 0 l 681 1007 l 408 1007 l 7 0 l 283 0 l 351 183 l 731 183 l 800 0 z m 540 692 l 644 413 l 436 413 z "},"Ā":{"ha":1089,"x_min":0,"x_max":0,"o":"m 267 1274 l 267 1093 l 822 1093 l 822 1274 z m 1082 0 l 681 1007 l 408 1007 l 7 0 l 283 0 l 351 183 l 731 183 l 800 0 z m 540 692 l 644 413 l 436 413 z "},"Ą":{"ha":1089,"x_min":0,"x_max":0,"o":"m 1082 0 l 681 1007 l 408 1007 l 7 0 l 283 0 l 351 183 l 731 183 l 799 3 b 707 -165 738 -47 707 -101 b 883 -299 707 -240 761 -299 b 993 -286 919 -299 957 -296 l 993 -156 l 975 -156 b 911 -114 933 -156 911 -142 b 993 0 911 -68 942 -26 z m 540 692 l 644 413 l 436 413 z "},"Å":{"ha":1089,"x_min":0,"x_max":0,"o":"m 544 1086 b 738 1271 657 1086 738 1163 b 544 1454 738 1378 657 1454 b 350 1271 431 1454 350 1378 b 544 1086 350 1163 431 1086 z m 544 1335 b 608 1271 582 1335 608 1308 b 544 1206 608 1233 582 1206 b 479 1271 507 1206 479 1233 b 544 1335 479 1308 507 1335 z m 1082 0 l 681 1007 l 408 1007 l 7 0 l 283 0 l 351 183 l 731 183 l 800 0 z m 540 692 l 644 413 l 436 413 z "},"Ã":{"ha":1089,"x_min":0,"x_max":0,"o":"m 465 1167 b 665 1086 524 1167 536 1086 b 872 1335 796 1086 872 1165 l 679 1335 b 624 1265 675 1289 664 1265 b 424 1346 565 1265 553 1346 b 217 1097 293 1346 217 1267 l 410 1097 b 465 1167 414 1143 425 1167 z m 1082 0 l 681 1007 l 408 1007 l 7 0 l 283 0 l 351 183 l 731 183 l 800 0 z m 540 692 l 644 413 l 436 413 z "},"Æ":{"ha":1564,"x_min":0,"x_max":0,"o":"m 1014 399 l 1431 399 l 1431 628 l 1014 628 l 1014 778 l 1489 778 l 1489 1007 l 613 1007 l 7 0 l 306 0 l 411 183 l 736 183 l 736 0 l 1494 0 l 1494 229 l 1014 229 z m 736 750 l 736 413 l 543 413 z "},"B":{"ha":976,"x_min":0,"x_max":0,"o":"m 756 525 b 893 738 842 565 893 639 b 543 1007 893 908 742 1007 l 90 1007 l 90 0 l 574 0 b 932 278 783 0 932 103 b 756 525 932 397 864 486 z m 610 706 b 513 622 610 657 574 622 l 368 622 l 368 785 l 513 785 b 610 706 574 785 610 750 z m 368 222 l 368 408 l 544 408 b 649 319 610 408 649 372 b 544 222 649 260 610 222 z "},"C":{"ha":1094,"x_min":0,"x_max":0,"o":"m 575 -28 b 1053 313 819 -28 1000 106 l 767 313 b 574 203 729 244 663 203 b 333 504 426 203 333 319 b 574 804 333 689 426 804 b 769 692 665 804 732 763 l 1053 692 b 574 1035 1000 900 819 1035 b 49 504 269 1035 49 811 b 575 -28 49 199 267 -28 z "},"Ć":{"ha":1094,"x_min":0,"x_max":0,"o":"m 663 1093 l 897 1336 l 588 1336 l 454 1093 z m 575 -28 b 1053 313 819 -28 1000 106 l 767 313 b 574 203 729 244 663 203 b 333 504 426 203 333 319 b 574 804 333 689 426 804 b 769 692 665 804 732 763 l 1053 692 b 574 1035 1000 900 819 1035 b 49 504 269 1035 49 811 b 575 -28 49 199 267 -28 z "},"Č":{"ha":1094,"x_min":0,"x_max":0,"o":"m 894 1336 l 661 1336 l 579 1242 l 496 1336 l 263 1336 l 458 1093 l 700 1093 z m 574 203 b 333 504 426 203 333 319 b 574 804 333 689 426 804 b 769 692 665 804 732 763 l 1053 692 b 574 1035 1000 900 819 1035 b 49 504 269 1035 49 811 b 575 -28 49 199 267 -28 b 1053 313 819 -28 1000 106 l 767 313 b 574 203 729 244 663 203 z "},"Ç":{"ha":1094,"x_min":0,"x_max":0,"o":"m 574 203 b 333 504 426 203 333 319 b 574 804 333 689 426 804 b 769 692 665 804 732 763 l 1053 692 b 574 1035 1000 900 819 1035 b 49 504 269 1035 49 811 b 485 -21 49 229 225 18 l 447 -75 l 475 -132 l 489 -132 b 529 -158 518 -132 529 -140 b 483 -183 529 -176 513 -183 b 426 -181 463 -183 453 -183 l 426 -287 b 511 -294 454 -293 483 -294 b 704 -169 650 -294 704 -249 b 589 -64 704 -111 656 -74 l 618 -26 b 1053 313 840 -12 1003 118 l 767 313 b 574 203 729 244 663 203 z "},"Ĉ":{"ha":1094,"x_min":0,"x_max":0,"o":"m 661 1093 l 894 1093 l 700 1336 l 458 1336 l 263 1093 l 496 1093 l 579 1188 z m 574 203 b 333 504 426 203 333 319 b 574 804 333 689 426 804 b 769 692 665 804 732 763 l 1053 692 b 574 1035 1000 900 819 1035 b 49 504 269 1035 49 811 b 575 -28 49 199 267 -28 b 1053 313 819 -28 1000 106 l 767 313 b 574 203 729 244 663 203 z "},"Ċ":{"ha":1094,"x_min":0,"x_max":0,"o":"m 579 1086 b 728 1229 660 1086 728 1147 b 579 1374 728 1313 663 1374 b 429 1229 494 1374 429 1313 b 579 1086 429 1147 494 1086 z m 575 -28 b 1053 313 819 -28 1000 106 l 767 313 b 574 203 729 244 663 203 b 333 504 426 203 333 319 b 574 804 333 689 426 804 b 769 692 665 804 732 763 l 1053 692 b 574 1035 1000 900 819 1035 b 49 504 269 1035 49 811 b 575 -28 49 199 267 -28 z "},"D":{"ha":1043,"x_min":0,"x_max":0,"o":"m 90 1007 l 90 0 l 475 0 b 994 504 779 0 994 208 b 475 1007 994 799 779 1007 z m 368 229 l 368 778 l 471 778 b 710 504 611 778 710 663 b 471 229 710 344 611 229 z "},"Ð":{"ha":1043,"x_min":0,"x_max":0,"o":"m 90 1007 l 90 615 l 13 615 l 13 393 l 90 393 l 90 0 l 475 0 b 994 504 779 0 994 208 b 475 1007 994 799 779 1007 z m 368 229 l 368 393 l 556 393 l 556 615 l 368 615 l 368 778 l 471 778 b 710 504 611 778 710 663 b 471 229 710 344 611 229 z "},"Ď":{"ha":1043,"x_min":0,"x_max":0,"o":"m 824 1336 l 590 1336 l 508 1242 l 425 1336 l 192 1336 l 388 1093 l 629 1093 z m 90 1007 l 90 0 l 475 0 b 994 504 779 0 994 208 b 475 1007 994 799 779 1007 z m 368 229 l 368 778 l 471 778 b 710 504 611 778 710 663 b 471 229 710 344 611 229 z "},"Đ":{"ha":1043,"x_min":0,"x_max":0,"o":"m 90 1007 l 90 615 l 13 615 l 13 393 l 90 393 l 90 0 l 475 0 b 994 504 779 0 994 208 b 475 1007 994 799 779 1007 z m 368 229 l 368 393 l 556 393 l 556 615 l 368 615 l 368 778 l 471 778 b 710 504 611 778 710 663 b 471 229 710 344 611 229 z "},"E":{"ha":918,"x_min":0,"x_max":0,"o":"m 368 399 l 785 399 l 785 628 l 368 628 l 368 778 l 843 778 l 843 1007 l 90 1007 l 90 0 l 849 0 l 849 229 l 368 229 z "},"É":{"ha":918,"x_min":0,"x_max":0,"o":"m 475 1336 l 342 1093 l 550 1093 l 785 1336 z m 368 399 l 785 399 l 785 628 l 368 628 l 368 778 l 843 778 l 843 1007 l 90 1007 l 90 0 l 849 0 l 849 229 l 368 229 z "},"Ĕ":{"ha":918,"x_min":0,"x_max":0,"o":"m 463 1086 b 756 1332 651 1086 756 1171 l 546 1332 b 467 1249 543 1269 515 1249 b 385 1332 417 1249 388 1269 l 178 1332 b 463 1086 178 1171 299 1086 z m 368 399 l 785 399 l 785 628 l 368 628 l 368 778 l 843 778 l 843 1007 l 90 1007 l 90 0 l 849 0 l 849 229 l 368 229 z "},"Ě":{"ha":918,"x_min":0,"x_max":0,"o":"m 782 1336 l 549 1336 l 467 1242 l 383 1336 l 150 1336 l 346 1093 l 588 1093 z m 368 399 l 785 399 l 785 628 l 368 628 l 368 778 l 843 778 l 843 1007 l 90 1007 l 90 0 l 849 0 l 849 229 l 368 229 z "},"Ê":{"ha":918,"x_min":0,"x_max":0,"o":"m 549 1093 l 782 1093 l 588 1336 l 346 1336 l 150 1093 l 383 1093 l 467 1188 z m 368 399 l 785 399 l 785 628 l 368 628 l 368 778 l 843 778 l 843 1007 l 90 1007 l 90 0 l 849 0 l 849 229 l 368 229 z "},"Ë":{"ha":918,"x_min":0,"x_max":0,"o":"m 260 1085 b 393 1213 332 1085 393 1140 b 260 1342 393 1286 335 1342 b 126 1213 185 1342 126 1286 b 260 1085 126 1140 185 1085 z m 674 1085 b 806 1213 744 1085 806 1140 b 674 1342 806 1286 747 1342 b 539 1213 597 1342 539 1286 b 674 1085 539 1140 597 1085 z m 368 399 l 785 399 l 785 628 l 368 628 l 368 778 l 843 778 l 843 1007 l 90 1007 l 90 0 l 849 0 l 849 229 l 368 229 z "},"Ė":{"ha":918,"x_min":0,"x_max":0,"o":"m 467 1086 b 615 1229 547 1086 615 1147 b 467 1374 615 1313 550 1374 b 317 1229 382 1374 317 1313 b 467 1086 317 1147 382 1086 z m 368 399 l 785 399 l 785 628 l 368 628 l 368 778 l 843 778 l 843 1007 l 90 1007 l 90 0 l 849 0 l 849 229 l 368 229 z "},"È":{"ha":918,"x_min":0,"x_max":0,"o":"m 460 1336 l 150 1336 l 379 1093 l 588 1093 z m 368 399 l 785 399 l 785 628 l 368 628 l 368 778 l 843 778 l 843 1007 l 90 1007 l 90 0 l 849 0 l 849 229 l 368 229 z "},"Ē":{"ha":918,"x_min":0,"x_max":0,"o":"m 189 1274 l 189 1093 l 744 1093 l 744 1274 z m 368 399 l 785 399 l 785 628 l 368 628 l 368 778 l 843 778 l 843 1007 l 90 1007 l 90 0 l 849 0 l 849 229 l 368 229 z "},"Ę":{"ha":918,"x_min":0,"x_max":0,"o":"m 849 229 l 368 229 l 368 399 l 785 399 l 785 628 l 368 628 l 368 778 l 843 778 l 843 1007 l 90 1007 l 90 0 l 651 0 b 563 -165 593 -49 563 -103 b 739 -299 563 -240 617 -299 b 849 -286 775 -299 813 -296 l 849 -156 l 831 -156 b 767 -114 789 -156 767 -142 b 849 0 767 -68 797 -26 z "},"Ẽ":{"ha":918,"x_min":0,"x_max":0,"o":"m 388 1167 b 588 1086 446 1167 458 1086 b 794 1335 718 1086 794 1165 l 601 1335 b 546 1265 597 1289 586 1265 b 346 1346 488 1265 475 1346 b 139 1097 215 1346 139 1267 l 332 1097 b 388 1167 336 1143 347 1167 z m 368 399 l 785 399 l 785 628 l 368 628 l 368 778 l 843 778 l 843 1007 l 90 1007 l 90 0 l 849 0 l 849 229 l 368 229 z "},"F":{"ha":886,"x_min":0,"x_max":0,"o":"m 824 1007 l 90 1007 l 90 0 l 368 0 l 368 374 l 763 374 l 763 603 l 368 603 l 368 778 l 824 778 z "},"Ƒ":{"ha":815,"x_min":0,"x_max":0,"o":"m 799 796 l 799 1007 l 608 1007 b 329 806 446 1007 356 956 l 310 696 l 147 696 l 147 486 l 272 486 l 194 43 b 88 -39 185 -14 153 -39 l -26 -39 l -26 -250 l 172 -250 b 443 -49 326 -250 417 -200 l 538 486 l 744 486 l 744 696 l 575 696 l 578 714 b 685 796 588 771 619 796 z "},"G":{"ha":1143,"x_min":0,"x_max":0,"o":"m 526 354 l 811 354 b 578 203 783 261 692 203 b 329 504 422 203 329 319 b 574 804 329 689 424 804 b 746 728 647 804 706 776 l 1043 728 b 578 1035 978 915 806 1035 b 49 501 268 1035 49 811 b 538 -28 49 179 278 -28 b 810 76 668 -28 753 18 l 810 0 l 1053 0 l 1053 576 l 526 576 z "},"Ğ":{"ha":1143,"x_min":0,"x_max":0,"o":"m 564 1086 b 857 1332 753 1086 857 1171 l 647 1332 b 568 1249 644 1269 617 1249 b 486 1332 518 1249 489 1269 l 279 1332 b 564 1086 279 1171 400 1086 z m 526 354 l 811 354 b 578 203 783 261 692 203 b 329 504 422 203 329 319 b 574 804 329 689 424 804 b 746 728 647 804 706 776 l 1043 728 b 578 1035 978 915 806 1035 b 49 501 268 1035 49 811 b 538 -28 49 179 278 -28 b 810 76 668 -28 753 18 l 810 0 l 1053 0 l 1053 576 l 526 576 z "},"Ǧ":{"ha":1143,"x_min":0,"x_max":0,"o":"m 883 1336 l 650 1336 l 568 1242 l 485 1336 l 251 1336 l 447 1093 l 689 1093 z m 526 354 l 811 354 b 578 203 783 261 692 203 b 329 504 422 203 329 319 b 574 804 329 689 424 804 b 746 728 647 804 706 776 l 1043 728 b 578 1035 978 915 806 1035 b 49 501 268 1035 49 811 b 538 -28 49 179 278 -28 b 810 76 668 -28 753 18 l 810 0 l 1053 0 l 1053 576 l 526 576 z "},"Ĝ":{"ha":1143,"x_min":0,"x_max":0,"o":"m 650 1093 l 883 1093 l 689 1336 l 447 1336 l 251 1093 l 485 1093 l 568 1188 z m 526 354 l 811 354 b 578 203 783 261 692 203 b 329 504 422 203 329 319 b 574 804 329 689 424 804 b 746 728 647 804 706 776 l 1043 728 b 578 1035 978 915 806 1035 b 49 501 268 1035 49 811 b 538 -28 49 179 278 -28 b 810 76 668 -28 753 18 l 810 0 l 1053 0 l 1053 576 l 526 576 z "},"Ģ":{"ha":1143,"x_min":0,"x_max":0,"o":"m 526 354 l 811 354 b 578 203 783 261 692 203 b 329 504 422 203 329 319 b 574 804 329 689 424 804 b 746 728 647 804 706 776 l 1043 728 b 578 1035 978 915 806 1035 b 49 501 268 1035 49 811 b 538 -28 49 179 278 -28 b 810 76 668 -28 753 18 l 810 0 l 1053 0 l 1053 576 l 526 576 z m 597 -319 l 689 -83 l 447 -83 l 411 -319 z "},"Ġ":{"ha":1143,"x_min":0,"x_max":0,"o":"m 568 1086 b 717 1229 649 1086 717 1147 b 568 1374 717 1313 651 1374 b 418 1229 483 1374 418 1313 b 568 1086 418 1147 483 1086 z m 526 354 l 811 354 b 578 203 783 261 692 203 b 329 504 422 203 329 319 b 574 804 329 689 424 804 b 746 728 647 804 706 776 l 1043 728 b 578 1035 978 915 806 1035 b 49 501 268 1035 49 811 b 538 -28 49 179 278 -28 b 810 76 668 -28 753 18 l 810 0 l 1053 0 l 1053 576 l 526 576 z "},"H":{"ha":1056,"x_min":0,"x_max":0,"o":"m 688 628 l 368 628 l 368 1007 l 90 1007 l 90 0 l 368 0 l 368 399 l 688 399 l 688 0 l 965 0 l 965 1007 l 688 1007 z "},"Ħ":{"ha":1056,"x_min":0,"x_max":0,"o":"m 965 936 l 965 1007 l 688 1007 l 688 936 l 368 936 l 368 1007 l 90 1007 l 90 936 l 6 936 l 6 714 l 90 714 l 90 0 l 368 0 l 368 399 l 688 399 l 688 0 l 965 0 l 965 714 l 1050 714 l 1050 936 z m 368 628 l 368 714 l 688 714 l 688 628 z "},"Ĥ":{"ha":1056,"x_min":0,"x_max":0,"o":"m 610 1093 l 843 1093 l 649 1336 l 407 1336 l 211 1093 l 444 1093 l 528 1188 z m 688 628 l 368 628 l 368 1007 l 90 1007 l 90 0 l 368 0 l 368 399 l 688 399 l 688 0 l 965 0 l 965 1007 l 688 1007 z "},"I":{"ha":458,"x_min":0,"x_max":0,"o":"m 368 0 l 368 1007 l 90 1007 l 90 0 z "},"Ĳ":{"ha":1086,"x_min":0,"x_max":0,"o":"m 368 0 l 368 1007 l 90 1007 l 90 0 z m 679 0 b 1003 324 965 0 1003 165 l 1003 1007 l 725 1007 l 725 344 b 615 229 725 260 697 229 l 486 229 l 486 0 z "},"Í":{"ha":458,"x_min":0,"x_max":0,"o":"m 313 1093 l 547 1336 l 238 1336 l 104 1093 z m 368 0 l 368 1007 l 90 1007 l 90 0 z "},"Ĭ":{"ha":458,"x_min":0,"x_max":0,"o":"m 225 1086 b 518 1332 414 1086 518 1171 l 308 1332 b 229 1249 306 1269 278 1249 b 147 1332 179 1249 150 1269 l -60 1332 b 225 1086 -60 1171 61 1086 z m 368 0 l 368 1007 l 90 1007 l 90 0 z "},"Ǐ":{"ha":458,"x_min":0,"x_max":0,"o":"m 544 1336 l 311 1336 l 229 1242 l 146 1336 l -87 1336 l 108 1093 l 350 1093 z m 368 0 l 368 1007 l 90 1007 l 90 0 z "},"Î":{"ha":458,"x_min":0,"x_max":0,"o":"m 311 1093 l 544 1093 l 350 1336 l 108 1336 l -87 1093 l 146 1093 l 229 1188 z m 368 0 l 368 1007 l 90 1007 l 90 0 z "},"Ï":{"ha":458,"x_min":0,"x_max":0,"o":"m 22 1085 b 156 1213 94 1085 156 1140 b 22 1342 156 1286 97 1342 b -111 1213 -53 1342 -111 1286 b 22 1085 -111 1140 -53 1085 z m 436 1085 b 568 1213 507 1085 568 1140 b 436 1342 568 1286 510 1342 b 301 1213 360 1342 301 1286 b 436 1085 301 1140 360 1085 z m 368 0 l 368 1007 l 90 1007 l 90 0 z "},"İ":{"ha":458,"x_min":0,"x_max":0,"o":"m 229 1086 b 378 1229 310 1086 378 1147 b 229 1374 378 1313 313 1374 b 79 1229 144 1374 79 1313 b 229 1086 79 1147 144 1086 z m 368 0 l 368 1007 l 90 1007 l 90 0 z "},"Ị":{"ha":458,"x_min":0,"x_max":0,"o":"m 368 0 l 368 1007 l 90 1007 l 90 0 z m 229 -372 b 378 -229 310 -372 378 -311 b 229 -85 378 -146 313 -85 b 79 -229 144 -85 79 -146 b 229 -372 79 -311 144 -372 z "},"Ì":{"ha":458,"x_min":0,"x_max":0,"o":"m 350 1093 l 222 1336 l -87 1336 l 142 1093 z m 368 0 l 368 1007 l 90 1007 l 90 0 z "},"Ī":{"ha":458,"x_min":0,"x_max":0,"o":"m 507 1093 l 507 1274 l -49 1274 l -49 1093 z m 368 0 l 368 1007 l 90 1007 l 90 0 z "},"Į":{"ha":458,"x_min":0,"x_max":0,"o":"m 368 1007 l 90 1007 l 90 0 l 171 0 b 82 -165 113 -49 82 -103 b 258 -299 82 -240 136 -299 b 368 -286 294 -299 332 -296 l 368 -156 l 350 -156 b 286 -114 308 -156 286 -142 b 368 0 286 -68 317 -26 z "},"Ĩ":{"ha":458,"x_min":0,"x_max":0,"o":"m 350 1086 b 557 1335 481 1086 557 1165 l 364 1335 b 308 1265 360 1289 349 1265 b 108 1346 250 1265 238 1346 b -99 1097 -22 1346 -99 1267 l 94 1097 b 150 1167 99 1143 110 1167 b 350 1086 208 1167 221 1086 z m 368 0 l 368 1007 l 90 1007 l 90 0 z "},"J":{"ha":628,"x_min":0,"x_max":0,"o":"m 221 0 b 544 324 507 0 544 165 l 544 1007 l 267 1007 l 267 344 b 157 229 267 260 239 229 l 28 229 l 28 0 z "},"Ĵ":{"ha":628,"x_min":0,"x_max":0,"o":"m 488 1093 l 721 1093 l 526 1336 l 285 1336 l 89 1093 l 322 1093 l 406 1188 z m 267 344 b 157 229 267 260 239 229 l 28 229 l 28 0 l 221 0 b 544 324 507 0 544 165 l 544 1007 l 267 1007 z "},"K":{"ha":1000,"x_min":0,"x_max":0,"o":"m 993 0 l 610 586 l 964 1007 l 661 1007 l 368 651 l 368 1007 l 90 1007 l 90 0 l 368 0 l 368 299 l 431 372 l 672 0 z "},"Ķ":{"ha":1000,"x_min":0,"x_max":0,"o":"m 964 1007 l 661 1007 l 368 651 l 368 1007 l 90 1007 l 90 0 l 368 0 l 368 299 l 431 372 l 672 0 l 993 0 l 610 586 z m 529 -319 l 621 -83 l 379 -83 l 343 -319 z "},"L":{"ha":853,"x_min":0,"x_max":0,"o":"m 368 1007 l 90 1007 l 90 0 l 804 0 l 804 229 l 368 229 z "},"Ĺ":{"ha":853,"x_min":0,"x_max":0,"o":"m 238 1336 l 104 1093 l 313 1093 l 547 1336 z m 368 1007 l 90 1007 l 90 0 l 804 0 l 804 229 l 368 229 z "},"Ľ":{"ha":853,"x_min":0,"x_max":0,"o":"m 368 1007 l 90 1007 l 90 0 l 804 0 l 804 229 l 368 229 z m 443 1007 l 438 674 l 604 674 l 669 1007 z "},"Ļ":{"ha":853,"x_min":0,"x_max":0,"o":"m 368 1007 l 90 1007 l 90 0 l 804 0 l 804 229 l 368 229 z m 460 -319 l 551 -83 l 310 -83 l 274 -319 z "},"Ł":{"ha":853,"x_min":0,"x_max":0,"o":"m 368 358 l 565 472 l 565 736 l 368 622 l 368 1007 l 90 1007 l 90 483 l 11 435 l 11 172 l 90 221 l 90 0 l 804 0 l 804 229 l 368 229 z "},"M":{"ha":1278,"x_min":0,"x_max":0,"o":"m 643 488 l 350 1007 l 90 1007 l 90 0 l 354 0 l 354 543 l 567 168 l 722 168 l 924 536 l 924 0 l 1188 0 l 1188 1007 l 928 1007 z "},"N":{"ha":1056,"x_min":0,"x_max":0,"o":"m 713 447 l 324 1007 l 90 1007 l 90 0 l 343 0 l 343 565 l 733 0 l 965 0 l 965 1007 l 713 1007 z "},"Ń":{"ha":1056,"x_min":0,"x_max":0,"o":"m 536 1336 l 403 1093 l 611 1093 l 846 1336 z m 713 447 l 324 1007 l 90 1007 l 90 0 l 343 0 l 343 565 l 733 0 l 965 0 l 965 1007 l 713 1007 z "},"Ň":{"ha":1056,"x_min":0,"x_max":0,"o":"m 843 1336 l 610 1336 l 528 1242 l 444 1336 l 211 1336 l 407 1093 l 649 1093 z m 713 447 l 324 1007 l 90 1007 l 90 0 l 343 0 l 343 565 l 733 0 l 965 0 l 965 1007 l 713 1007 z "},"Ņ":{"ha":1056,"x_min":0,"x_max":0,"o":"m 713 447 l 324 1007 l 90 1007 l 90 0 l 343 0 l 343 565 l 733 0 l 965 0 l 965 1007 l 713 1007 z m 557 -319 l 649 -83 l 407 -83 l 371 -319 z "},"Ñ":{"ha":1056,"x_min":0,"x_max":0,"o":"m 449 1167 b 649 1086 507 1167 519 1086 b 856 1335 779 1086 856 1165 l 663 1335 b 607 1265 658 1289 647 1265 b 407 1346 549 1265 536 1346 b 200 1097 276 1346 200 1267 l 393 1097 b 449 1167 397 1143 408 1167 z m 713 447 l 324 1007 l 90 1007 l 90 0 l 343 0 l 343 565 l 733 0 l 965 0 l 965 1007 l 713 1007 z "},"O":{"ha":1175,"x_min":0,"x_max":0,"o":"m 589 -28 b 1126 504 904 -28 1126 193 b 589 1035 1126 815 904 1035 b 49 504 272 1035 49 815 b 589 -28 49 193 272 -28 z m 589 203 b 333 504 432 203 333 319 b 589 804 333 689 432 804 b 842 504 744 804 842 689 b 589 203 842 319 744 203 z "},"Ó":{"ha":1175,"x_min":0,"x_max":0,"o":"m 671 1093 l 906 1336 l 596 1336 l 463 1093 z m 589 -28 b 1126 504 904 -28 1126 193 b 589 1035 1126 815 904 1035 b 49 504 272 1035 49 815 b 589 -28 49 193 272 -28 z m 589 203 b 333 504 432 203 333 319 b 589 804 333 689 432 804 b 842 504 744 804 842 689 b 589 203 842 319 744 203 z "},"Ŏ":{"ha":1175,"x_min":0,"x_max":0,"o":"m 583 1086 b 876 1332 772 1086 876 1171 l 667 1332 b 588 1249 664 1269 636 1249 b 506 1332 538 1249 508 1269 l 299 1332 b 583 1086 299 1171 419 1086 z m 589 -28 b 1126 504 904 -28 1126 193 b 589 1035 1126 815 904 1035 b 49 504 272 1035 49 815 b 589 -28 49 193 272 -28 z m 589 203 b 333 504 432 203 333 319 b 589 804 333 689 432 804 b 842 504 744 804 842 689 b 589 203 842 319 744 203 z "},"Ǒ":{"ha":1175,"x_min":0,"x_max":0,"o":"m 903 1336 l 669 1336 l 588 1242 l 504 1336 l 271 1336 l 467 1093 l 708 1093 z m 589 1035 b 49 504 272 1035 49 815 b 589 -28 49 193 272 -28 b 1126 504 904 -28 1126 193 b 589 1035 1126 815 904 1035 z m 589 203 b 333 504 432 203 333 319 b 589 804 333 689 432 804 b 842 504 744 804 842 689 b 589 203 842 319 744 203 z "},"Ô":{"ha":1175,"x_min":0,"x_max":0,"o":"m 669 1093 l 903 1093 l 708 1336 l 467 1336 l 271 1093 l 504 1093 l 588 1188 z m 589 1035 b 49 504 272 1035 49 815 b 589 -28 49 193 272 -28 b 1126 504 904 -28 1126 193 b 589 1035 1126 815 904 1035 z m 589 203 b 333 504 432 203 333 319 b 589 804 333 689 432 804 b 842 504 744 804 842 689 b 589 203 842 319 744 203 z "},"Ö":{"ha":1175,"x_min":0,"x_max":0,"o":"m 381 1085 b 514 1213 453 1085 514 1140 b 381 1342 514 1286 456 1342 b 247 1213 306 1342 247 1286 b 381 1085 247 1140 306 1085 z m 794 1085 b 926 1213 865 1085 926 1140 b 794 1342 926 1286 868 1342 b 660 1213 718 1342 660 1286 b 794 1085 660 1140 718 1085 z m 589 -28 b 1126 504 904 -28 1126 193 b 589 1035 1126 815 904 1035 b 49 504 272 1035 49 815 b 589 -28 49 193 272 -28 z m 589 203 b 333 504 432 203 333 319 b 589 804 333 689 432 804 b 842 504 744 804 842 689 b 589 203 842 319 744 203 z "},"Ọ":{"ha":1175,"x_min":0,"x_max":0,"o":"m 589 -28 b 1126 504 904 -28 1126 193 b 589 1035 1126 815 904 1035 b 49 504 272 1035 49 815 b 589 -28 49 193 272 -28 z m 589 203 b 333 504 432 203 333 319 b 589 804 333 689 432 804 b 842 504 744 804 842 689 b 589 203 842 319 744 203 z m 588 -372 b 736 -229 668 -372 736 -311 b 588 -85 736 -146 671 -85 b 438 -229 503 -85 438 -146 b 588 -372 438 -311 503 -372 z "},"Ò":{"ha":1175,"x_min":0,"x_max":0,"o":"m 708 1093 l 581 1336 l 271 1336 l 500 1093 z m 589 -28 b 1126 504 904 -28 1126 193 b 589 1035 1126 815 904 1035 b 49 504 272 1035 49 815 b 589 -28 49 193 272 -28 z m 589 203 b 333 504 432 203 333 319 b 589 804 333 689 432 804 b 842 504 744 804 842 689 b 589 203 842 319 744 203 z "},"Ő":{"ha":1175,"x_min":0,"x_max":0,"o":"m 531 1093 l 650 1336 l 410 1336 l 350 1093 z m 825 1093 l 976 1336 l 736 1336 l 644 1093 z m 589 -28 b 1126 504 904 -28 1126 193 b 589 1035 1126 815 904 1035 b 49 504 272 1035 49 815 b 589 -28 49 193 272 -28 z m 589 203 b 333 504 432 203 333 319 b 589 804 333 689 432 804 b 842 504 744 804 842 689 b 589 203 842 319 744 203 z "},"Ō":{"ha":1175,"x_min":0,"x_max":0,"o":"m 865 1093 l 865 1274 l 310 1274 l 310 1093 z m 589 -28 b 1126 504 904 -28 1126 193 b 589 1035 1126 815 904 1035 b 49 504 272 1035 49 815 b 589 -28 49 193 272 -28 z m 589 203 b 333 504 432 203 333 319 b 589 804 333 689 432 804 b 842 504 744 804 842 689 b 589 203 842 319 744 203 z "},"Ø":{"ha":1175,"x_min":0,"x_max":0,"o":"m 911 1007 l 872 964 b 589 1035 792 1010 696 1035 b 49 504 272 1035 49 815 b 165 160 49 368 92 250 l 19 0 l 261 0 l 301 44 b 589 -28 383 -1 481 -28 b 1126 504 904 -28 1126 193 b 1010 850 1126 640 1083 760 l 1153 1007 z m 589 804 b 704 779 632 804 671 796 l 356 365 b 333 504 342 406 333 451 b 589 804 333 689 432 804 z m 589 203 b 471 229 544 203 504 213 l 818 644 b 842 504 833 604 842 557 b 589 203 842 319 744 203 z "},"Õ":{"ha":1175,"x_min":0,"x_max":0,"o":"m 708 1086 b 915 1335 839 1086 915 1165 l 722 1335 b 667 1265 718 1289 707 1265 b 467 1346 608 1265 596 1346 b 260 1097 336 1346 260 1267 l 453 1097 b 508 1167 457 1143 468 1167 b 708 1086 567 1167 579 1086 z m 589 -28 b 1126 504 904 -28 1126 193 b 589 1035 1126 815 904 1035 b 49 504 272 1035 49 815 b 589 -28 49 193 272 -28 z m 589 203 b 333 504 432 203 333 319 b 589 804 333 689 432 804 b 842 504 744 804 842 689 b 589 203 842 319 744 203 z "},"Œ":{"ha":1674,"x_min":0,"x_max":0,"o":"m 1124 399 l 1540 399 l 1540 628 l 1124 628 l 1124 778 l 1599 778 l 1599 1007 l 846 1007 l 846 953 b 575 1035 771 1006 678 1035 b 49 504 272 1035 49 815 b 575 -28 49 193 272 -28 b 846 54 678 -28 771 1 l 846 0 l 1604 0 l 1604 229 l 1124 229 z m 589 203 b 333 504 432 203 333 319 b 589 804 333 689 432 804 b 842 504 744 804 842 689 b 589 203 842 319 744 203 z "},"P":{"ha":957,"x_min":0,"x_max":0,"o":"m 90 1007 l 90 0 l 368 0 l 368 318 l 539 318 b 915 663 767 318 915 447 b 539 1007 915 875 767 1007 z m 368 547 l 368 778 l 524 778 b 642 663 596 778 642 732 b 524 547 642 592 596 547 z "},"Þ":{"ha":957,"x_min":0,"x_max":0,"o":"m 368 868 l 368 1007 l 90 1007 l 90 0 l 368 0 l 368 179 l 539 179 b 915 524 767 179 915 308 b 539 868 915 736 767 868 z m 368 408 l 368 639 l 524 639 b 642 524 596 639 642 593 b 524 408 642 453 596 408 z "},"Q":{"ha":1175,"x_min":0,"x_max":0,"o":"m 1126 504 b 589 1035 1126 815 904 1035 b 49 504 272 1035 49 815 b 589 -28 49 193 272 -28 b 814 15 671 -28 747 -12 l 826 0 l 1100 0 l 986 132 b 1126 504 1075 225 1126 354 z m 589 203 b 333 504 432 203 333 319 b 589 804 333 689 432 804 b 842 504 744 804 842 689 b 808 338 842 440 829 383 l 744 411 l 474 411 l 647 208 b 589 203 629 204 610 203 z "},"R":{"ha":968,"x_min":0,"x_max":0,"o":"m 947 0 l 693 372 b 892 675 817 421 892 528 b 519 1007 892 881 743 1007 l 90 1007 l 90 0 l 368 0 l 368 346 l 410 346 l 639 0 z m 618 668 b 517 561 618 601 576 561 l 368 561 l 368 778 l 517 778 b 618 668 576 778 618 736 z "},"Ŕ":{"ha":968,"x_min":0,"x_max":0,"o":"m 489 1336 l 356 1093 l 564 1093 l 799 1336 z m 947 0 l 693 372 b 892 675 817 421 892 528 b 519 1007 892 881 743 1007 l 90 1007 l 90 0 l 368 0 l 368 346 l 410 346 l 639 0 z m 618 668 b 517 561 618 601 576 561 l 368 561 l 368 778 l 517 778 b 618 668 576 778 618 736 z "},"Ř":{"ha":968,"x_min":0,"x_max":0,"o":"m 796 1336 l 563 1336 l 481 1242 l 397 1336 l 164 1336 l 360 1093 l 601 1093 z m 947 0 l 693 372 b 892 675 817 421 892 528 b 519 1007 892 881 743 1007 l 90 1007 l 90 0 l 368 0 l 368 346 l 410 346 l 639 0 z m 618 668 b 517 561 618 601 576 561 l 368 561 l 368 778 l 517 778 b 618 668 576 778 618 736 z "},"Ŗ":{"ha":968,"x_min":0,"x_max":0,"o":"m 693 372 b 892 675 817 421 892 528 b 519 1007 892 881 743 1007 l 90 1007 l 90 0 l 368 0 l 368 346 l 410 346 l 639 0 l 947 0 z m 618 668 b 517 561 618 601 576 561 l 368 561 l 368 778 l 517 778 b 618 668 576 778 618 736 z m 510 -319 l 601 -83 l 360 -83 l 324 -319 z "},"S":{"ha":929,"x_min":0,"x_max":0,"o":"m 467 -26 b 894 321 724 -26 894 97 b 583 618 894 475 814 590 l 444 635 b 325 719 406 639 325 653 b 464 821 325 775 376 821 b 615 714 547 821 597 781 l 876 714 b 464 1033 840 915 696 1033 b 46 692 214 1033 46 899 b 340 397 46 518 168 419 l 482 379 b 617 288 536 372 617 361 b 472 185 617 217 543 185 b 293 301 407 185 321 208 l 22 301 b 467 -26 60 76 229 -26 z "},"Ś":{"ha":929,"x_min":0,"x_max":0,"o":"m 549 1093 l 783 1336 l 474 1336 l 340 1093 z m 467 -26 b 894 321 724 -26 894 97 b 583 618 894 475 814 590 l 444 635 b 325 719 406 639 325 653 b 464 821 325 775 376 821 b 615 714 547 821 597 781 l 876 714 b 464 1033 840 915 696 1033 b 46 692 214 1033 46 899 b 340 397 46 518 168 419 l 482 379 b 617 288 536 372 617 361 b 472 185 617 217 543 185 b 293 301 407 185 321 208 l 22 301 b 467 -26 60 76 229 -26 z "},"Š":{"ha":929,"x_min":0,"x_max":0,"o":"m 781 1336 l 547 1336 l 465 1242 l 382 1336 l 149 1336 l 344 1093 l 586 1093 z m 444 635 b 325 719 406 639 325 653 b 464 821 325 775 376 821 b 615 714 547 821 597 781 l 876 714 b 464 1033 840 915 696 1033 b 46 692 214 1033 46 899 b 340 397 46 518 168 419 l 482 379 b 617 288 536 372 617 361 b 472 185 617 217 543 185 b 293 301 407 185 321 208 l 22 301 b 467 -26 60 76 229 -26 b 894 321 724 -26 894 97 b 583 618 894 475 814 590 z "},"Ş":{"ha":929,"x_min":0,"x_max":0,"o":"m 894 321 b 583 618 894 475 814 590 l 444 635 b 325 719 406 639 325 653 b 464 821 325 775 376 821 b 615 714 547 821 597 781 l 876 714 b 464 1033 840 915 696 1033 b 46 692 214 1033 46 899 b 340 397 46 518 168 419 l 482 379 b 617 288 536 372 617 361 b 472 185 617 217 543 185 b 293 301 407 185 321 208 l 22 301 b 397 -24 56 99 196 -4 l 361 -75 l 389 -132 l 403 -132 b 443 -158 432 -132 443 -140 b 397 -183 443 -176 426 -183 b 340 -181 376 -183 367 -183 l 340 -287 b 425 -294 368 -293 397 -294 b 618 -169 564 -294 618 -249 b 503 -64 618 -111 569 -74 l 533 -24 b 894 321 753 -3 894 117 z "},"Ŝ":{"ha":929,"x_min":0,"x_max":0,"o":"m 547 1093 l 781 1093 l 586 1336 l 344 1336 l 149 1093 l 382 1093 l 465 1188 z m 444 635 b 325 719 406 639 325 653 b 464 821 325 775 376 821 b 615 714 547 821 597 781 l 876 714 b 464 1033 840 915 696 1033 b 46 692 214 1033 46 899 b 340 397 46 518 168 419 l 482 379 b 617 288 536 372 617 361 b 472 185 617 217 543 185 b 293 301 407 185 321 208 l 22 301 b 467 -26 60 76 229 -26 b 894 321 724 -26 894 97 b 583 618 894 475 814 590 z "},"Ș":{"ha":929,"x_min":0,"x_max":0,"o":"m 467 -26 b 894 321 724 -26 894 97 b 583 618 894 475 814 590 l 444 635 b 325 719 406 639 325 653 b 464 821 325 775 376 821 b 615 714 547 821 597 781 l 876 714 b 464 1033 840 915 696 1033 b 46 692 214 1033 46 899 b 340 397 46 518 168 419 l 482 379 b 617 288 536 372 617 361 b 472 185 617 217 543 185 b 293 301 407 185 321 208 l 22 301 b 467 -26 60 76 229 -26 z m 494 -319 l 586 -83 l 344 -83 l 308 -319 z "},"ẞ":{"ha":981,"x_min":0,"x_max":0,"o":"m 892 829 l 892 1007 l 90 1007 l 90 0 l 368 0 l 368 799 l 581 799 l 446 608 l 446 422 l 517 422 b 661 318 601 422 661 382 b 536 224 661 263 615 224 b 446 225 503 224 483 224 l 446 0 b 567 -6 486 -4 529 -6 b 936 304 793 -6 936 121 b 717 583 936 436 857 542 z "},"T":{"ha":933,"x_min":0,"x_max":0,"o":"m 35 1007 l 35 778 l 328 778 l 328 0 l 606 0 l 606 778 l 899 778 l 899 1007 z "},"Ť":{"ha":933,"x_min":0,"x_max":0,"o":"m 782 1336 l 549 1336 l 467 1242 l 383 1336 l 150 1336 l 346 1093 l 588 1093 z m 35 1007 l 35 778 l 328 778 l 328 0 l 606 0 l 606 778 l 899 778 l 899 1007 z "},"Ţ":{"ha":933,"x_min":0,"x_max":0,"o":"m 606 778 l 899 778 l 899 1007 l 35 1007 l 35 778 l 328 778 l 328 0 l 415 0 l 363 -75 l 390 -132 l 404 -132 b 444 -158 433 -132 444 -140 b 399 -183 444 -176 428 -183 b 342 -181 378 -183 368 -183 l 342 -287 b 426 -294 369 -293 399 -294 b 619 -169 565 -294 619 -249 b 504 -64 619 -111 571 -74 l 553 0 l 606 0 z "},"Ț":{"ha":933,"x_min":0,"x_max":0,"o":"m 35 1007 l 35 778 l 328 778 l 328 0 l 606 0 l 606 778 l 899 778 l 899 1007 z m 496 -319 l 588 -83 l 346 -83 l 310 -319 z "},"U":{"ha":1022,"x_min":0,"x_max":0,"o":"m 513 -28 b 946 379 772 -28 946 110 l 946 1007 l 668 1007 l 668 381 b 513 201 668 260 606 201 b 354 381 418 201 354 260 l 354 1007 l 76 1007 l 76 379 b 513 -28 76 110 251 -28 z "},"Ú":{"ha":1022,"x_min":0,"x_max":0,"o":"m 594 1093 l 829 1336 l 519 1336 l 386 1093 z m 513 -28 b 946 379 772 -28 946 110 l 946 1007 l 668 1007 l 668 381 b 513 201 668 260 606 201 b 354 381 418 201 354 260 l 354 1007 l 76 1007 l 76 379 b 513 -28 76 110 251 -28 z "},"Ŭ":{"ha":1022,"x_min":0,"x_max":0,"o":"m 507 1086 b 800 1332 696 1086 800 1171 l 590 1332 b 511 1249 588 1269 560 1249 b 429 1332 461 1249 432 1269 l 222 1332 b 507 1086 222 1171 343 1086 z m 513 -28 b 946 379 772 -28 946 110 l 946 1007 l 668 1007 l 668 381 b 513 201 668 260 606 201 b 354 381 418 201 354 260 l 354 1007 l 76 1007 l 76 379 b 513 -28 76 110 251 -28 z "},"Ǔ":{"ha":1022,"x_min":0,"x_max":0,"o":"m 826 1336 l 593 1336 l 511 1242 l 428 1336 l 194 1336 l 390 1093 l 632 1093 z m 668 381 b 513 201 668 260 606 201 b 354 381 418 201 354 260 l 354 1007 l 76 1007 l 76 379 b 513 -28 76 110 251 -28 b 946 379 772 -28 946 110 l 946 1007 l 668 1007 z "},"Û":{"ha":1022,"x_min":0,"x_max":0,"o":"m 593 1093 l 826 1093 l 632 1336 l 390 1336 l 194 1093 l 428 1093 l 511 1188 z m 668 381 b 513 201 668 260 606 201 b 354 381 418 201 354 260 l 354 1007 l 76 1007 l 76 379 b 513 -28 76 110 251 -28 b 946 379 772 -28 946 110 l 946 1007 l 668 1007 z "},"Ü":{"ha":1022,"x_min":0,"x_max":0,"o":"m 304 1085 b 438 1213 376 1085 438 1140 b 304 1342 438 1286 379 1342 b 171 1213 229 1342 171 1286 b 304 1085 171 1140 229 1085 z m 718 1085 b 850 1213 789 1085 850 1140 b 718 1342 850 1286 792 1342 b 583 1213 642 1342 583 1286 b 718 1085 583 1140 642 1085 z m 513 -28 b 946 379 772 -28 946 110 l 946 1007 l 668 1007 l 668 381 b 513 201 668 260 606 201 b 354 381 418 201 354 260 l 354 1007 l 76 1007 l 76 379 b 513 -28 76 110 251 -28 z "},"Ụ":{"ha":1022,"x_min":0,"x_max":0,"o":"m 513 -28 b 946 379 772 -28 946 110 l 946 1007 l 668 1007 l 668 381 b 513 201 668 260 606 201 b 354 381 418 201 354 260 l 354 1007 l 76 1007 l 76 379 b 513 -28 76 110 251 -28 z m 511 -372 b 660 -229 592 -372 660 -311 b 511 -85 660 -146 594 -85 b 361 -229 426 -85 361 -146 b 511 -372 361 -311 426 -372 z "},"Ù":{"ha":1022,"x_min":0,"x_max":0,"o":"m 632 1093 l 504 1336 l 194 1336 l 424 1093 z m 513 -28 b 946 379 772 -28 946 110 l 946 1007 l 668 1007 l 668 381 b 513 201 668 260 606 201 b 354 381 418 201 354 260 l 354 1007 l 76 1007 l 76 379 b 513 -28 76 110 251 -28 z "},"Ű":{"ha":1022,"x_min":0,"x_max":0,"o":"m 454 1093 l 574 1336 l 333 1336 l 274 1093 z m 749 1093 l 900 1336 l 660 1336 l 568 1093 z m 513 -28 b 946 379 772 -28 946 110 l 946 1007 l 668 1007 l 668 381 b 513 201 668 260 606 201 b 354 381 418 201 354 260 l 354 1007 l 76 1007 l 76 379 b 513 -28 76 110 251 -28 z "},"Ū":{"ha":1022,"x_min":0,"x_max":0,"o":"m 789 1093 l 789 1274 l 233 1274 l 233 1093 z m 513 -28 b 946 379 772 -28 946 110 l 946 1007 l 668 1007 l 668 381 b 513 201 668 260 606 201 b 354 381 418 201 354 260 l 354 1007 l 76 1007 l 76 379 b 513 -28 76 110 251 -28 z "},"Ų":{"ha":1022,"x_min":0,"x_max":0,"o":"m 668 381 b 513 201 668 260 606 201 b 354 381 418 201 354 260 l 354 1007 l 76 1007 l 76 379 b 449 -25 76 132 224 -4 b 388 -165 408 -67 388 -112 b 564 -299 388 -240 442 -299 b 674 -286 600 -299 638 -296 l 674 -156 l 656 -156 b 592 -114 614 -156 592 -142 b 653 -12 592 -75 614 -39 b 946 379 833 31 946 161 l 946 1007 l 668 1007 z "},"Ů":{"ha":1022,"x_min":0,"x_max":0,"o":"m 511 1086 b 704 1271 624 1086 704 1163 b 511 1454 704 1378 624 1454 b 317 1271 397 1454 317 1378 b 511 1086 317 1163 397 1086 z m 511 1206 b 446 1271 474 1206 446 1233 b 511 1335 446 1308 474 1335 b 575 1271 549 1335 575 1308 b 511 1206 575 1233 549 1206 z m 513 -28 b 946 379 772 -28 946 110 l 946 1007 l 668 1007 l 668 381 b 513 201 668 260 606 201 b 354 381 418 201 354 260 l 354 1007 l 76 1007 l 76 379 b 513 -28 76 110 251 -28 z "},"Ũ":{"ha":1022,"x_min":0,"x_max":0,"o":"m 632 1086 b 839 1335 763 1086 839 1165 l 646 1335 b 590 1265 642 1289 631 1265 b 390 1346 532 1265 519 1346 b 183 1097 260 1346 183 1267 l 376 1097 b 432 1167 381 1143 392 1167 b 632 1086 490 1167 503 1086 z m 513 -28 b 946 379 772 -28 946 110 l 946 1007 l 668 1007 l 668 381 b 513 201 668 260 606 201 b 354 381 418 201 354 260 l 354 1007 l 76 1007 l 76 379 b 513 -28 76 110 251 -28 z "},"V":{"ha":1061,"x_min":0,"x_max":0,"o":"m 533 361 l 300 1007 l 7 1007 l 394 0 l 667 0 l 1054 1007 l 761 1007 z "},"W":{"ha":1521,"x_min":0,"x_max":0,"o":"m 1076 382 l 882 1007 l 635 1007 l 461 383 l 278 1007 l 7 1007 l 325 0 l 592 0 l 761 575 l 943 0 l 1203 0 l 1514 1007 l 1243 1007 z "},"Ẃ":{"ha":1521,"x_min":0,"x_max":0,"o":"m 769 1336 l 636 1093 l 844 1093 l 1079 1336 z m 1076 382 l 882 1007 l 635 1007 l 461 383 l 278 1007 l 7 1007 l 325 0 l 592 0 l 761 575 l 943 0 l 1203 0 l 1514 1007 l 1243 1007 z "},"Ŵ":{"ha":1521,"x_min":0,"x_max":0,"o":"m 843 1093 l 1076 1093 l 882 1336 l 640 1336 l 444 1093 l 678 1093 l 761 1188 z m 1076 382 l 882 1007 l 635 1007 l 461 383 l 278 1007 l 7 1007 l 325 0 l 592 0 l 761 575 l 943 0 l 1203 0 l 1514 1007 l 1243 1007 z "},"Ẅ":{"ha":1521,"x_min":0,"x_max":0,"o":"m 554 1085 b 688 1213 626 1085 688 1140 b 554 1342 688 1286 629 1342 b 421 1213 479 1342 421 1286 b 554 1085 421 1140 479 1085 z m 968 1085 b 1100 1213 1039 1085 1100 1140 b 968 1342 1100 1286 1042 1342 b 833 1213 892 1342 833 1286 b 968 1085 833 1140 892 1085 z m 1076 382 l 882 1007 l 635 1007 l 461 383 l 278 1007 l 7 1007 l 325 0 l 592 0 l 761 575 l 943 0 l 1203 0 l 1514 1007 l 1243 1007 z "},"Ẁ":{"ha":1521,"x_min":0,"x_max":0,"o":"m 754 1336 l 444 1336 l 674 1093 l 882 1093 z m 1076 382 l 882 1007 l 635 1007 l 461 383 l 278 1007 l 7 1007 l 325 0 l 592 0 l 761 575 l 943 0 l 1203 0 l 1514 1007 l 1243 1007 z "},"X":{"ha":1021,"x_min":0,"x_max":0,"o":"m 681 507 l 988 1007 l 683 1007 l 525 732 l 357 1007 l 33 1007 l 342 535 l 7 0 l 313 0 l 497 308 l 690 0 l 1014 0 z "},"Y":{"ha":989,"x_min":0,"x_max":0,"o":"m 686 1007 l 506 657 l 318 1007 l 7 1007 l 356 392 l 356 0 l 633 0 l 633 392 l 982 1007 z "},"Ý":{"ha":989,"x_min":0,"x_max":0,"o":"m 503 1336 l 369 1093 l 578 1093 l 813 1336 z m 686 1007 l 506 657 l 318 1007 l 7 1007 l 356 392 l 356 0 l 633 0 l 633 392 l 982 1007 z "},"Ŷ":{"ha":989,"x_min":0,"x_max":0,"o":"m 576 1093 l 810 1093 l 615 1336 l 374 1336 l 178 1093 l 411 1093 l 494 1188 z m 686 1007 l 506 657 l 318 1007 l 7 1007 l 356 392 l 356 0 l 633 0 l 633 392 l 982 1007 z "},"Ÿ":{"ha":989,"x_min":0,"x_max":0,"o":"m 288 1085 b 421 1213 360 1085 421 1140 b 288 1342 421 1286 363 1342 b 154 1213 213 1342 154 1286 b 288 1085 154 1140 213 1085 z m 701 1085 b 833 1213 772 1085 833 1140 b 701 1342 833 1286 775 1342 b 567 1213 625 1342 567 1286 b 701 1085 567 1140 625 1085 z m 686 1007 l 506 657 l 318 1007 l 7 1007 l 356 392 l 356 0 l 633 0 l 633 392 l 982 1007 z "},"Ỳ":{"ha":989,"x_min":0,"x_max":0,"o":"m 488 1336 l 178 1336 l 407 1093 l 615 1093 z m 686 1007 l 506 657 l 318 1007 l 7 1007 l 356 392 l 356 0 l 633 0 l 633 392 l 982 1007 z "},"Ȳ":{"ha":989,"x_min":0,"x_max":0,"o":"m 217 1274 l 217 1093 l 772 1093 l 772 1274 z m 686 1007 l 506 657 l 318 1007 l 7 1007 l 356 392 l 356 0 l 633 0 l 633 392 l 982 1007 z "},"Ỹ":{"ha":989,"x_min":0,"x_max":0,"o":"m 415 1167 b 615 1086 474 1167 486 1086 b 822 1335 746 1086 822 1165 l 629 1335 b 574 1265 625 1289 614 1265 b 374 1346 515 1265 503 1346 b 167 1097 243 1346 167 1267 l 360 1097 b 415 1167 364 1143 375 1167 z m 686 1007 l 506 657 l 318 1007 l 7 1007 l 356 392 l 356 0 l 633 0 l 633 392 l 982 1007 z "},"Z":{"ha":936,"x_min":0,"x_max":0,"o":"m 881 829 l 881 1007 l 53 1007 l 53 778 l 514 778 l 46 178 l 46 0 l 890 0 l 890 229 l 410 229 z "},"Ź":{"ha":936,"x_min":0,"x_max":0,"o":"m 476 1336 l 343 1093 l 551 1093 l 786 1336 z m 881 829 l 881 1007 l 53 1007 l 53 778 l 514 778 l 46 178 l 46 0 l 890 0 l 890 229 l 410 229 z "},"Ž":{"ha":936,"x_min":0,"x_max":0,"o":"m 783 1336 l 550 1336 l 468 1242 l 385 1336 l 151 1336 l 347 1093 l 589 1093 z m 881 829 l 881 1007 l 53 1007 l 53 778 l 514 778 l 46 178 l 46 0 l 890 0 l 890 229 l 410 229 z "},"Ż":{"ha":936,"x_min":0,"x_max":0,"o":"m 468 1086 b 617 1229 549 1086 617 1147 b 468 1374 617 1313 551 1374 b 318 1229 383 1374 318 1313 b 468 1086 318 1147 383 1086 z m 881 829 l 881 1007 l 53 1007 l 53 778 l 514 778 l 46 178 l 46 0 l 890 0 l 890 229 l 410 229 z "},"a":{"ha":876,"x_min":0,"x_max":0,"o":"m 807 0 b 794 189 800 61 794 138 l 794 482 b 432 778 794 676 661 778 b 71 522 225 778 90 696 l 326 522 b 435 585 336 551 363 585 b 535 494 500 585 535 554 l 535 488 b 467 478 513 483 490 481 l 317 463 b 42 228 139 444 42 364 b 319 -21 42 78 158 -21 b 564 74 424 -21 508 8 l 569 0 z m 386 167 b 299 235 331 167 299 194 b 357 292 299 275 332 289 l 467 304 b 535 322 492 307 515 313 l 535 290 b 386 167 535 215 469 167 z "},"á":{"ha":876,"x_min":0,"x_max":0,"o":"m 447 1100 l 314 857 l 522 857 l 757 1100 z m 807 0 b 794 189 800 61 794 138 l 794 482 b 432 778 794 676 661 778 b 71 522 225 778 90 696 l 326 522 b 435 585 336 551 363 585 b 535 494 500 585 535 554 l 535 488 b 467 478 513 483 490 481 l 317 463 b 42 228 139 444 42 364 b 319 -21 42 78 158 -21 b 564 74 424 -21 508 8 l 569 0 z m 386 167 b 299 235 331 167 299 194 b 357 292 299 275 332 289 l 467 304 b 535 322 492 307 515 313 l 535 290 b 386 167 535 215 469 167 z "},"ă":{"ha":876,"x_min":0,"x_max":0,"o":"m 428 850 b 721 1096 617 850 721 935 l 511 1096 b 432 1013 508 1033 481 1013 b 350 1096 382 1013 353 1033 l 143 1096 b 428 850 143 935 264 850 z m 807 0 b 794 189 800 61 794 138 l 794 482 b 432 778 794 676 661 778 b 71 522 225 778 90 696 l 326 522 b 435 585 336 551 363 585 b 535 494 500 585 535 554 l 535 488 b 467 478 513 483 490 481 l 317 463 b 42 228 139 444 42 364 b 319 -21 42 78 158 -21 b 564 74 424 -21 508 8 l 569 0 z m 386 167 b 299 235 331 167 299 194 b 357 292 299 275 332 289 l 467 304 b 535 322 492 307 515 313 l 535 290 b 386 167 535 215 469 167 z "},"ǎ":{"ha":876,"x_min":0,"x_max":0,"o":"m 747 1100 l 514 1100 l 432 1006 l 349 1100 l 115 1100 l 311 857 l 553 857 z m 807 0 b 794 189 800 61 794 138 l 794 482 b 432 778 794 676 661 778 b 71 522 225 778 90 696 l 326 522 b 435 585 336 551 363 585 b 535 494 500 585 535 554 l 535 488 b 467 478 513 483 490 481 l 317 463 b 42 228 139 444 42 364 b 319 -21 42 78 158 -21 b 564 74 424 -21 508 8 l 569 0 z m 386 167 b 299 235 331 167 299 194 b 357 292 299 275 332 289 l 467 304 b 535 322 492 307 515 313 l 535 290 b 386 167 535 215 469 167 z "},"â":{"ha":876,"x_min":0,"x_max":0,"o":"m 514 857 l 747 857 l 553 1100 l 311 1100 l 115 857 l 349 857 l 432 951 z m 807 0 b 794 189 800 61 794 138 l 794 482 b 432 778 794 676 661 778 b 71 522 225 778 90 696 l 326 522 b 435 585 336 551 363 585 b 535 494 500 585 535 554 l 535 488 b 467 478 513 483 490 481 l 317 463 b 42 228 139 444 42 364 b 319 -21 42 78 158 -21 b 564 74 424 -21 508 8 l 569 0 z m 386 167 b 299 235 331 167 299 194 b 357 292 299 275 332 289 l 467 304 b 535 322 492 307 515 313 l 535 290 b 386 167 535 215 469 167 z "},"ä":{"ha":876,"x_min":0,"x_max":0,"o":"m 239 849 b 372 976 311 849 372 904 b 239 1106 372 1050 314 1106 b 106 976 164 1106 106 1050 b 239 849 106 904 164 849 z m 625 849 b 757 976 696 849 757 904 b 625 1106 757 1050 699 1106 b 490 976 549 1106 490 1050 b 625 849 490 904 549 849 z m 807 0 b 794 189 800 61 794 138 l 794 482 b 432 778 794 676 661 778 b 71 522 225 778 90 696 l 326 522 b 435 585 336 551 363 585 b 535 494 500 585 535 554 l 535 488 b 467 478 513 483 490 481 l 317 463 b 42 228 139 444 42 364 b 319 -21 42 78 158 -21 b 564 74 424 -21 508 8 l 569 0 z m 386 167 b 299 235 331 167 299 194 b 357 292 299 275 332 289 l 467 304 b 535 322 492 307 515 313 l 535 290 b 386 167 535 215 469 167 z "},"à":{"ha":876,"x_min":0,"x_max":0,"o":"m 422 1100 l 113 1100 l 342 857 l 550 857 z m 807 0 b 794 189 800 61 794 138 l 794 482 b 432 778 794 676 661 778 b 71 522 225 778 90 696 l 326 522 b 435 585 336 551 363 585 b 535 494 500 585 535 554 l 535 488 b 467 478 513 483 490 481 l 317 463 b 42 228 139 444 42 364 b 319 -21 42 78 158 -21 b 564 74 424 -21 508 8 l 569 0 z m 386 167 b 299 235 331 167 299 194 b 357 292 299 275 332 289 l 467 304 b 535 322 492 307 515 313 l 535 290 b 386 167 535 215 469 167 z "},"ā":{"ha":876,"x_min":0,"x_max":0,"o":"m 154 1038 l 154 857 l 710 857 l 710 1038 z m 807 0 b 794 189 800 61 794 138 l 794 482 b 432 778 794 676 661 778 b 71 522 225 778 90 696 l 326 522 b 435 585 336 551 363 585 b 535 494 500 585 535 554 l 535 488 b 467 478 513 483 490 481 l 317 463 b 42 228 139 444 42 364 b 319 -21 42 78 158 -21 b 564 74 424 -21 508 8 l 569 0 z m 386 167 b 299 235 331 167 299 194 b 357 292 299 275 332 289 l 467 304 b 535 322 492 307 515 313 l 535 290 b 386 167 535 215 469 167 z "},"ą":{"ha":876,"x_min":0,"x_max":0,"o":"m 807 0 b 794 189 800 61 794 138 l 794 482 b 432 778 794 676 661 778 b 71 522 225 778 90 696 l 326 522 b 435 585 336 551 363 585 b 535 494 500 585 535 554 l 535 488 b 467 478 513 483 490 481 l 317 463 b 42 228 139 444 42 364 b 319 -21 42 78 158 -21 b 564 74 424 -21 508 8 l 569 3 b 476 -165 507 -46 476 -101 b 653 -299 476 -240 531 -299 b 763 -286 689 -299 726 -296 l 763 -156 l 744 -156 b 681 -114 703 -156 681 -142 b 763 0 681 -68 711 -26 z m 386 167 b 299 235 331 167 299 194 b 357 292 299 275 332 289 l 467 304 b 535 322 492 307 515 313 l 535 290 b 386 167 535 215 469 167 z "},"å":{"ha":876,"x_min":0,"x_max":0,"o":"m 432 850 b 625 1035 544 850 625 926 b 432 1218 625 1142 544 1218 b 238 1035 318 1218 238 1142 b 432 850 238 926 318 850 z m 432 1099 b 496 1035 469 1099 496 1072 b 432 969 496 997 469 969 b 367 1035 394 969 367 997 b 432 1099 367 1072 394 1099 z m 807 0 b 794 189 800 61 794 138 l 794 482 b 432 778 794 676 661 778 b 71 522 225 778 90 696 l 326 522 b 435 585 336 551 363 585 b 535 494 500 585 535 554 l 535 488 b 467 478 513 483 490 481 l 317 463 b 42 228 139 444 42 364 b 319 -21 42 78 158 -21 b 564 74 424 -21 508 8 l 569 0 z m 386 167 b 299 235 331 167 299 194 b 357 292 299 275 332 289 l 467 304 b 535 322 492 307 515 313 l 535 290 b 386 167 535 215 469 167 z "},"ã":{"ha":876,"x_min":0,"x_max":0,"o":"m 353 931 b 553 850 411 931 424 850 b 760 1099 683 850 760 929 l 567 1099 b 511 1029 563 1053 551 1029 b 311 1110 453 1029 440 1110 b 104 861 181 1110 104 1031 l 297 861 b 353 931 301 907 313 931 z m 807 0 b 794 189 800 61 794 138 l 794 482 b 432 778 794 676 661 778 b 71 522 225 778 90 696 l 326 522 b 435 585 336 551 363 585 b 535 494 500 585 535 554 l 535 488 b 467 478 513 483 490 481 l 317 463 b 42 228 139 444 42 364 b 319 -21 42 78 158 -21 b 564 74 424 -21 508 8 l 569 0 z m 386 167 b 299 235 331 167 299 194 b 357 292 299 275 332 289 l 467 304 b 535 322 492 307 515 313 l 535 290 b 386 167 535 215 469 167 z "},"æ":{"ha":1360,"x_min":0,"x_max":0,"o":"m 924 778 b 686 696 833 778 751 749 b 432 778 629 750 543 778 b 71 522 225 778 90 696 l 326 522 b 435 585 336 551 363 585 b 535 494 500 585 535 554 l 535 488 b 467 478 513 483 490 481 l 317 463 b 42 228 139 444 42 364 b 319 -21 42 78 158 -21 b 642 96 465 -21 574 15 b 932 -28 711 18 813 -28 b 1308 219 1121 -28 1258 72 l 1047 219 b 931 168 1025 188 985 168 b 782 296 853 168 797 218 l 1314 296 b 924 778 1349 569 1193 778 z m 924 582 b 1065 460 1006 582 1053 533 l 782 460 b 924 582 796 532 850 582 z m 386 167 b 299 238 331 167 299 194 b 357 292 299 279 332 289 l 467 304 b 535 322 492 307 515 313 l 535 290 b 386 167 535 215 469 167 z "},"b":{"ha":960,"x_min":0,"x_max":0,"o":"m 561 774 b 350 693 472 774 401 744 l 350 1007 l 86 1007 l 86 0 l 342 0 l 342 65 b 560 -24 394 8 468 -24 b 918 379 781 -24 918 149 b 561 774 918 628 760 774 z m 499 182 b 350 375 403 182 350 251 b 499 568 350 499 403 568 b 647 375 594 568 647 499 b 499 182 647 251 594 182 z "},"c":{"ha":871,"x_min":0,"x_max":0,"o":"m 461 -28 b 835 238 643 -28 793 78 l 581 238 b 461 182 556 203 517 182 b 313 375 365 182 313 251 b 461 568 313 499 365 568 b 586 499 521 568 563 542 l 836 499 b 461 778 794 665 644 778 b 42 375 211 778 42 607 b 461 -28 42 143 211 -28 z "},"ć":{"ha":871,"x_min":0,"x_max":0,"o":"m 542 857 l 776 1100 l 467 1100 l 333 857 z m 461 -28 b 835 238 643 -28 793 78 l 581 238 b 461 182 556 203 517 182 b 313 375 365 182 313 251 b 461 568 313 499 365 568 b 586 499 521 568 563 542 l 836 499 b 461 778 794 665 644 778 b 42 375 211 778 42 607 b 461 -28 42 143 211 -28 z "},"č":{"ha":871,"x_min":0,"x_max":0,"o":"m 767 1100 l 533 1100 l 451 1006 l 368 1100 l 135 1100 l 331 857 l 572 857 z m 461 182 b 313 375 365 182 313 251 b 461 568 313 499 365 568 b 586 499 521 568 563 542 l 836 499 b 461 778 794 665 644 778 b 42 375 211 778 42 607 b 461 -28 42 143 211 -28 b 835 238 643 -28 793 78 l 581 238 b 461 182 556 203 517 182 z "},"ç":{"ha":871,"x_min":0,"x_max":0,"o":"m 461 182 b 313 375 365 182 313 251 b 461 568 313 499 365 568 b 586 499 521 568 563 542 l 836 499 b 461 778 794 665 644 778 b 42 375 211 778 42 607 b 383 -22 42 168 176 10 l 346 -75 l 374 -132 l 388 -132 b 428 -158 417 -132 428 -140 b 382 -183 428 -176 411 -183 b 325 -181 361 -183 351 -183 l 325 -287 b 410 -294 353 -293 382 -294 b 603 -169 549 -294 603 -249 b 488 -64 603 -111 554 -74 l 518 -24 b 835 238 674 -4 797 94 l 581 238 b 461 182 556 203 517 182 z "},"ĉ":{"ha":871,"x_min":0,"x_max":0,"o":"m 533 857 l 767 857 l 572 1100 l 331 1100 l 135 857 l 368 857 l 451 951 z m 461 182 b 313 375 365 182 313 251 b 461 568 313 499 365 568 b 586 499 521 568 563 542 l 836 499 b 461 778 794 665 644 778 b 42 375 211 778 42 607 b 461 -28 42 143 211 -28 b 835 238 643 -28 793 78 l 581 238 b 461 182 556 203 517 182 z "},"ċ":{"ha":871,"x_min":0,"x_max":0,"o":"m 451 850 b 600 993 532 850 600 911 b 451 1138 600 1076 535 1138 b 301 993 367 1138 301 1076 b 451 850 301 911 367 850 z m 461 -28 b 835 238 643 -28 793 78 l 581 238 b 461 182 556 203 517 182 b 313 375 365 182 313 251 b 461 568 313 499 365 568 b 586 499 521 568 563 542 l 836 499 b 461 778 794 665 644 778 b 42 375 211 778 42 607 b 461 -28 42 143 211 -28 z "},"d":{"ha":960,"x_min":0,"x_max":0,"o":"m 610 693 b 399 774 558 744 488 774 b 42 379 200 774 42 628 b 400 -24 42 149 179 -24 b 618 65 492 -24 565 8 l 618 0 l 874 0 l 874 1007 l 610 1007 z m 461 182 b 313 375 365 182 313 251 b 461 568 313 499 365 568 b 610 375 557 568 610 499 b 461 182 610 251 557 182 z "},"ð":{"ha":900,"x_min":0,"x_max":0,"o":"m 718 840 l 718 1024 l 526 944 b 471 1007 508 964 490 985 l 125 1007 b 297 850 186 954 243 903 l 183 803 l 183 619 l 418 717 b 508 592 450 676 479 636 b 393 604 474 600 436 604 b 42 297 217 604 42 494 b 449 -28 42 99 226 -28 b 858 339 672 -28 858 106 b 639 808 858 478 793 613 z m 451 172 b 313 299 367 172 313 222 b 451 422 313 374 367 422 b 588 299 535 422 588 374 b 451 172 588 222 535 172 z "},"ď":{"ha":960,"x_min":0,"x_max":0,"o":"m 610 693 b 399 774 558 744 488 774 b 42 379 200 774 42 628 b 400 -24 42 149 179 -24 b 618 65 492 -24 565 8 l 618 0 l 874 0 l 874 1007 l 610 1007 z m 929 674 l 1096 674 l 1161 1007 l 935 1007 z m 461 182 b 313 375 365 182 313 251 b 461 568 313 499 365 568 b 610 375 557 568 610 499 b 461 182 610 251 557 182 z "},"đ":{"ha":960,"x_min":0,"x_max":0,"o":"m 874 965 l 874 1007 l 610 1007 l 610 965 l 481 965 l 481 785 l 610 785 l 610 693 b 399 774 558 744 488 774 b 42 379 200 774 42 628 b 400 -24 42 149 179 -24 b 618 65 492 -24 565 8 l 618 0 l 874 0 l 874 785 l 946 785 l 946 965 z m 461 182 b 313 375 365 182 313 251 b 461 568 313 499 365 568 b 610 375 557 568 610 499 b 461 182 610 251 557 182 z "},"e":{"ha":885,"x_min":0,"x_max":0,"o":"m 449 778 b 42 368 221 778 42 615 b 457 -28 42 136 214 -28 b 833 219 646 -28 783 72 l 572 219 b 456 168 550 188 510 168 b 307 296 378 168 322 218 l 839 296 b 449 778 874 569 718 778 z m 449 582 b 590 460 531 582 578 533 l 307 460 b 449 582 321 532 375 582 z "},"é":{"ha":885,"x_min":0,"x_max":0,"o":"m 461 1100 l 328 857 l 536 857 l 771 1100 z m 449 778 b 42 368 221 778 42 615 b 457 -28 42 136 214 -28 b 833 219 646 -28 783 72 l 572 219 b 456 168 550 188 510 168 b 307 296 378 168 322 218 l 839 296 b 449 778 874 569 718 778 z m 449 582 b 590 460 531 582 578 533 l 307 460 b 449 582 321 532 375 582 z "},"ĕ":{"ha":885,"x_min":0,"x_max":0,"o":"m 442 850 b 735 1096 631 850 735 935 l 525 1096 b 446 1013 522 1033 494 1013 b 364 1096 396 1013 367 1033 l 157 1096 b 442 850 157 935 278 850 z m 449 778 b 42 368 221 778 42 615 b 457 -28 42 136 214 -28 b 833 219 646 -28 783 72 l 572 219 b 456 168 550 188 510 168 b 307 296 378 168 322 218 l 839 296 b 449 778 874 569 718 778 z m 449 582 b 590 460 531 582 578 533 l 307 460 b 449 582 321 532 375 582 z "},"ě":{"ha":885,"x_min":0,"x_max":0,"o":"m 761 1100 l 528 1100 l 446 1006 l 363 1100 l 129 1100 l 325 857 l 567 857 z m 449 778 b 42 368 221 778 42 615 b 457 -28 42 136 214 -28 b 833 219 646 -28 783 72 l 572 219 b 456 168 550 188 510 168 b 307 296 378 168 322 218 l 839 296 b 449 778 874 569 718 778 z m 449 582 b 590 460 531 582 578 533 l 307 460 b 449 582 321 532 375 582 z "},"ê":{"ha":885,"x_min":0,"x_max":0,"o":"m 528 857 l 761 857 l 567 1100 l 325 1100 l 129 857 l 363 857 l 446 951 z m 449 778 b 42 368 221 778 42 615 b 457 -28 42 136 214 -28 b 833 219 646 -28 783 72 l 572 219 b 456 168 550 188 510 168 b 307 296 378 168 322 218 l 839 296 b 449 778 874 569 718 778 z m 449 582 b 590 460 531 582 578 533 l 307 460 b 449 582 321 532 375 582 z "},"ë":{"ha":885,"x_min":0,"x_max":0,"o":"m 253 849 b 386 976 325 849 386 904 b 253 1106 386 1050 328 1106 b 119 976 178 1106 119 1050 b 253 849 119 904 178 849 z m 639 849 b 771 976 710 849 771 904 b 639 1106 771 1050 713 1106 b 504 976 563 1106 504 1050 b 639 849 504 904 563 849 z m 449 778 b 42 368 221 778 42 615 b 457 -28 42 136 214 -28 b 833 219 646 -28 783 72 l 572 219 b 456 168 550 188 510 168 b 307 296 378 168 322 218 l 839 296 b 449 778 874 569 718 778 z m 449 582 b 590 460 531 582 578 533 l 307 460 b 449 582 321 532 375 582 z "},"ė":{"ha":885,"x_min":0,"x_max":0,"o":"m 446 850 b 594 993 526 850 594 911 b 446 1138 594 1076 529 1138 b 296 993 361 1138 296 1076 b 446 850 296 911 361 850 z m 449 778 b 42 368 221 778 42 615 b 457 -28 42 136 214 -28 b 833 219 646 -28 783 72 l 572 219 b 456 168 550 188 510 168 b 307 296 378 168 322 218 l 839 296 b 449 778 874 569 718 778 z m 449 582 b 590 460 531 582 578 533 l 307 460 b 449 582 321 532 375 582 z "},"è":{"ha":885,"x_min":0,"x_max":0,"o":"m 436 1100 l 126 1100 l 356 857 l 564 857 z m 449 778 b 42 368 221 778 42 615 b 457 -28 42 136 214 -28 b 833 219 646 -28 783 72 l 572 219 b 456 168 550 188 510 168 b 307 296 378 168 322 218 l 839 296 b 449 778 874 569 718 778 z m 449 582 b 590 460 531 582 578 533 l 307 460 b 449 582 321 532 375 582 z "},"ē":{"ha":885,"x_min":0,"x_max":0,"o":"m 168 1038 l 168 857 l 724 857 l 724 1038 z m 449 778 b 42 368 221 778 42 615 b 457 -28 42 136 214 -28 b 833 219 646 -28 783 72 l 572 219 b 456 168 550 188 510 168 b 307 296 378 168 322 218 l 839 296 b 449 778 874 569 718 778 z m 449 582 b 590 460 531 582 578 533 l 307 460 b 449 582 321 532 375 582 z "},"ę":{"ha":885,"x_min":0,"x_max":0,"o":"m 449 778 b 42 368 221 778 42 615 b 389 -24 42 158 182 4 b 325 -165 346 -65 325 -112 b 501 -299 325 -240 379 -299 b 611 -286 538 -299 575 -296 l 611 -156 l 593 -156 b 529 -114 551 -156 529 -142 b 600 -7 529 -72 556 -33 b 833 219 714 31 797 113 l 572 219 b 456 168 550 188 510 168 b 307 296 378 168 322 218 l 839 296 b 449 778 874 569 718 778 z m 449 582 b 590 460 531 582 578 533 l 307 460 b 449 582 321 532 375 582 z "},"ẽ":{"ha":885,"x_min":0,"x_max":0,"o":"m 367 931 b 567 850 425 931 438 850 b 774 1099 697 850 774 929 l 581 1099 b 525 1029 576 1053 565 1029 b 325 1110 467 1029 454 1110 b 118 861 194 1110 118 1031 l 311 861 b 367 931 315 907 326 931 z m 449 778 b 42 368 221 778 42 615 b 457 -28 42 136 214 -28 b 833 219 646 -28 783 72 l 572 219 b 456 168 550 188 510 168 b 307 296 378 168 322 218 l 839 296 b 449 778 874 569 718 778 z m 449 582 b 590 460 531 582 578 533 l 307 460 b 449 582 321 532 375 582 z "},"f":{"ha":640,"x_min":0,"x_max":0,"o":"m 624 799 l 624 1007 l 460 1007 b 160 758 229 1007 160 926 l 160 750 l 21 750 l 21 542 l 160 542 l 160 0 l 424 0 l 424 542 l 610 542 l 610 750 l 425 750 b 497 799 429 790 449 799 z "},"g":{"ha":946,"x_min":0,"x_max":0,"o":"m 604 693 b 392 774 553 744 482 774 b 42 407 197 774 42 638 b 393 32 42 192 176 32 b 596 104 478 32 546 58 l 596 54 b 457 -82 596 -26 550 -82 b 328 -18 392 -82 344 -64 l 74 -18 b 460 -278 103 -199 258 -278 b 860 74 711 -278 860 -140 l 860 750 l 604 750 z m 447 224 b 299 403 351 224 299 288 b 447 582 299 518 351 582 b 596 403 543 582 596 518 b 447 224 596 288 543 224 z "},"ğ":{"ha":946,"x_min":0,"x_max":0,"o":"m 442 850 b 735 1096 631 850 735 935 l 525 1096 b 446 1013 522 1033 494 1013 b 364 1096 396 1013 367 1033 l 157 1096 b 442 850 157 935 278 850 z m 604 693 b 392 774 553 744 482 774 b 42 407 197 774 42 638 b 393 32 42 192 176 32 b 596 104 478 32 546 58 l 596 54 b 457 -82 596 -26 550 -82 b 328 -18 392 -82 344 -64 l 74 -18 b 460 -278 103 -199 258 -278 b 860 74 711 -278 860 -140 l 860 750 l 604 750 z m 447 224 b 299 403 351 224 299 288 b 447 582 299 518 351 582 b 596 403 543 582 596 518 b 447 224 596 288 543 224 z "},"ǧ":{"ha":946,"x_min":0,"x_max":0,"o":"m 761 1100 l 528 1100 l 446 1006 l 363 1100 l 129 1100 l 325 857 l 567 857 z m 604 693 b 392 774 553 744 482 774 b 42 407 197 774 42 638 b 393 32 42 192 176 32 b 596 104 478 32 546 58 l 596 54 b 457 -82 596 -26 550 -82 b 328 -18 392 -82 344 -64 l 74 -18 b 460 -278 103 -199 258 -278 b 860 74 711 -278 860 -140 l 860 750 l 604 750 z m 447 224 b 299 403 351 224 299 288 b 447 582 299 518 351 582 b 596 403 543 582 596 518 b 447 224 596 288 543 224 z "},"ĝ":{"ha":946,"x_min":0,"x_max":0,"o":"m 528 857 l 761 857 l 567 1100 l 325 1100 l 129 857 l 363 857 l 446 951 z m 604 693 b 392 774 553 744 482 774 b 42 407 197 774 42 638 b 393 32 42 192 176 32 b 596 104 478 32 546 58 l 596 54 b 457 -82 596 -26 550 -82 b 328 -18 392 -82 344 -64 l 74 -18 b 460 -278 103 -199 258 -278 b 860 74 711 -278 860 -140 l 860 750 l 604 750 z m 447 224 b 299 403 351 224 299 288 b 447 582 299 518 351 582 b 596 403 543 582 596 518 b 447 224 596 288 543 224 z "},"ģ":{"ha":946,"x_min":0,"x_max":0,"o":"m 403 1100 l 311 857 l 553 857 l 589 1100 z m 604 693 b 392 774 553 744 482 774 b 42 407 197 774 42 638 b 393 32 42 192 176 32 b 596 104 478 32 546 58 l 596 54 b 457 -82 596 -26 550 -82 b 328 -18 392 -82 344 -64 l 74 -18 b 460 -278 103 -199 258 -278 b 860 74 711 -278 860 -140 l 860 750 l 604 750 z m 447 224 b 299 403 351 224 299 288 b 447 582 299 518 351 582 b 596 403 543 582 596 518 b 447 224 596 288 543 224 z "},"ġ":{"ha":946,"x_min":0,"x_max":0,"o":"m 446 850 b 594 993 526 850 594 911 b 446 1138 594 1076 529 1138 b 296 993 361 1138 296 1076 b 446 850 296 911 361 850 z m 604 693 b 392 774 553 744 482 774 b 42 407 197 774 42 638 b 393 32 42 192 176 32 b 596 104 478 32 546 58 l 596 54 b 457 -82 596 -26 550 -82 b 328 -18 392 -82 344 -64 l 74 -18 b 460 -278 103 -199 258 -278 b 860 74 711 -278 860 -140 l 860 750 l 604 750 z m 447 224 b 299 403 351 224 299 288 b 447 582 299 518 351 582 b 596 403 543 582 596 518 b 447 224 596 288 543 224 z "},"h":{"ha":914,"x_min":0,"x_max":0,"o":"m 547 778 b 350 688 464 778 399 747 l 350 1007 l 86 1007 l 86 0 l 350 0 l 350 413 b 471 568 350 514 403 568 b 574 446 536 568 574 518 l 574 0 l 838 0 l 838 481 b 547 778 838 669 726 778 z "},"ħ":{"ha":914,"x_min":0,"x_max":0,"o":"m 547 778 b 350 688 464 778 399 747 l 350 785 l 478 785 l 478 965 l 350 965 l 350 1007 l 86 1007 l 86 965 l 13 965 l 13 785 l 86 785 l 86 0 l 350 0 l 350 413 b 471 568 350 514 403 568 b 574 446 536 568 574 518 l 574 0 l 838 0 l 838 481 b 547 778 838 669 726 778 z "},"ĥ":{"ha":914,"x_min":0,"x_max":0,"o":"m 300 1093 l 533 1093 l 339 1336 l 97 1336 l -99 1093 l 135 1093 l 218 1188 z m 547 778 b 350 688 464 778 399 747 l 350 1007 l 86 1007 l 86 0 l 350 0 l 350 413 b 471 568 350 514 403 568 b 574 446 536 568 574 518 l 574 0 l 838 0 l 838 481 b 547 778 838 669 726 778 z "},"i":{"ha":436,"x_min":0,"x_max":0,"o":"m 218 850 b 367 993 299 850 367 911 b 218 1138 367 1076 301 1138 b 68 993 133 1138 68 1076 b 218 850 68 911 133 850 z m 350 0 l 350 750 l 86 750 l 86 0 z "},"ı":{"ha":436,"x_min":0,"x_max":0,"o":"m 350 0 l 350 750 l 86 750 l 86 0 z "},"í":{"ha":436,"x_min":0,"x_max":0,"o":"m 308 857 l 543 1100 l 233 1100 l 100 857 z m 350 0 l 350 750 l 86 750 l 86 0 z "},"ĭ":{"ha":436,"x_min":0,"x_max":0,"o":"m 214 850 b 507 1096 403 850 507 935 l 297 1096 b 218 1013 294 1033 267 1013 b 136 1096 168 1013 139 1033 l -71 1096 b 214 850 -71 935 50 850 z m 350 0 l 350 750 l 86 750 l 86 0 z "},"ǐ":{"ha":436,"x_min":0,"x_max":0,"o":"m 533 1100 l 300 1100 l 218 1006 l 135 1100 l -99 1100 l 97 857 l 339 857 z m 350 0 l 350 750 l 86 750 l 86 0 z "},"î":{"ha":436,"x_min":0,"x_max":0,"o":"m 300 857 l 533 857 l 339 1100 l 97 1100 l -99 857 l 135 857 l 218 951 z m 350 0 l 350 750 l 86 750 l 86 0 z "},"ï":{"ha":436,"x_min":0,"x_max":0,"o":"m 25 849 b 158 976 97 849 158 904 b 25 1106 158 1050 100 1106 b -108 976 -50 1106 -108 1050 b 25 849 -108 904 -50 849 z m 411 849 b 543 976 482 849 543 904 b 411 1106 543 1050 485 1106 b 276 976 335 1106 276 1050 b 411 849 276 904 335 849 z m 350 0 l 350 750 l 86 750 l 86 0 z "},"ị":{"ha":436,"x_min":0,"x_max":0,"o":"m 218 850 b 367 993 299 850 367 911 b 218 1138 367 1076 301 1138 b 68 993 133 1138 68 1076 b 218 850 68 911 133 850 z m 350 0 l 350 750 l 86 750 l 86 0 z m 218 -372 b 367 -229 299 -372 367 -311 b 218 -85 367 -146 301 -85 b 68 -229 133 -85 68 -146 b 218 -372 68 -311 133 -372 z "},"ì":{"ha":436,"x_min":0,"x_max":0,"o":"m 336 857 l 208 1100 l -101 1100 l 128 857 z m 350 0 l 350 750 l 86 750 l 86 0 z "},"ĳ":{"ha":876,"x_min":0,"x_max":0,"o":"m 218 850 b 367 993 299 850 367 911 b 218 1138 367 1076 301 1138 b 68 993 133 1138 68 1076 b 218 850 68 911 133 850 z m 657 850 b 806 993 738 850 806 911 b 657 1138 806 1076 740 1138 b 507 993 572 1138 507 1076 b 657 850 507 911 572 850 z m 350 0 l 350 750 l 86 750 l 86 0 z m 490 -271 b 790 -4 721 -271 790 -194 l 790 750 l 526 750 l 526 11 b 453 -49 526 -46 508 -49 l 363 -49 l 363 -271 z "},"ī":{"ha":436,"x_min":0,"x_max":0,"o":"m 468 857 l 468 1038 l -32 1038 l -32 857 z m 350 0 l 350 750 l 86 750 l 86 0 z "},"į":{"ha":436,"x_min":0,"x_max":0,"o":"m 218 850 b 367 993 299 850 367 911 b 218 1138 367 1076 301 1138 b 68 993 133 1138 68 1076 b 218 850 68 911 133 850 z m 153 0 b 64 -165 94 -49 64 -103 b 240 -299 64 -240 118 -299 b 350 -286 276 -299 314 -296 l 350 -156 l 332 -156 b 268 -114 290 -156 268 -142 b 350 0 268 -68 299 -26 l 350 750 l 86 750 l 86 0 z "},"ĩ":{"ha":436,"x_min":0,"x_max":0,"o":"m 339 850 b 546 1099 469 850 546 929 l 353 1099 b 297 1029 349 1053 338 1029 b 97 1110 239 1029 226 1110 b -110 861 -33 1110 -110 1031 l 83 861 b 139 931 88 907 99 931 b 339 850 197 931 210 850 z m 350 0 l 350 750 l 86 750 l 86 0 z "},"j":{"ha":440,"x_min":0,"x_max":0,"o":"m 221 850 b 369 993 301 850 369 911 b 221 1138 369 1076 304 1138 b 71 993 136 1138 71 1076 b 221 850 71 911 136 850 z m 54 -271 b 354 -4 285 -271 354 -194 l 354 750 l 90 750 l 90 11 b 17 -49 90 -46 72 -49 l -74 -49 l -74 -271 z "},"ȷ":{"ha":440,"x_min":0,"x_max":0,"o":"m 54 -271 b 354 -4 285 -271 354 -194 l 354 750 l 90 750 l 90 11 b 17 -49 90 -46 72 -49 l -74 -49 l -74 -271 z "},"ĵ":{"ha":440,"x_min":0,"x_max":0,"o":"m 303 857 l 536 857 l 342 1100 l 100 1100 l -96 857 l 138 857 l 221 951 z m 90 11 b 17 -49 90 -46 72 -49 l -74 -49 l -74 -271 l 54 -271 b 354 -4 285 -271 354 -194 l 354 750 l 90 750 z "},"k":{"ha":863,"x_min":0,"x_max":0,"o":"m 856 0 l 569 460 l 829 750 l 532 750 l 350 547 l 350 1007 l 86 1007 l 86 0 l 350 0 l 350 236 l 394 283 l 556 0 z "},"ķ":{"ha":863,"x_min":0,"x_max":0,"o":"m 829 750 l 532 750 l 350 547 l 350 1007 l 86 1007 l 86 0 l 350 0 l 350 236 l 394 283 l 556 0 l 856 0 l 569 460 z m 461 -319 l 553 -83 l 311 -83 l 275 -319 z "},"l":{"ha":436,"x_min":0,"x_max":0,"o":"m 350 0 l 350 1007 l 86 1007 l 86 0 z "},"ĺ":{"ha":436,"x_min":0,"x_max":0,"o":"m 308 1114 l 543 1357 l 233 1357 l 100 1114 z m 350 0 l 350 1007 l 86 1007 l 86 0 z "},"ľ":{"ha":436,"x_min":0,"x_max":0,"o":"m 350 0 l 350 1007 l 86 1007 l 86 0 z m 572 674 l 638 1007 l 411 1007 l 406 674 z "},"ļ":{"ha":436,"x_min":0,"x_max":0,"o":"m 350 0 l 350 1007 l 86 1007 l 86 0 z m 247 -319 l 339 -83 l 97 -83 l 61 -319 z "},"ł":{"ha":436,"x_min":0,"x_max":0,"o":"m 350 697 l 350 1007 l 86 1007 l 86 561 l 18 517 l 18 267 l 86 311 l 86 0 l 350 0 l 350 447 l 417 492 l 417 742 z "},"m":{"ha":1388,"x_min":0,"x_max":0,"o":"m 1021 778 b 775 671 915 778 833 742 b 540 778 733 729 663 778 b 342 679 456 778 390 744 l 342 750 l 86 750 l 86 0 l 350 0 l 350 413 b 468 568 350 514 401 568 b 567 446 529 568 567 518 l 567 0 l 831 0 l 831 413 b 949 568 831 514 882 568 b 1047 446 1010 568 1047 518 l 1047 0 l 1311 0 l 1311 481 b 1021 778 1311 669 1200 778 z "},"n":{"ha":914,"x_min":0,"x_max":0,"o":"m 547 778 b 342 678 460 778 390 744 l 342 750 l 86 750 l 86 0 l 350 0 l 350 413 b 471 568 350 514 403 568 b 574 446 536 568 574 518 l 574 0 l 838 0 l 838 481 b 547 778 838 669 726 778 z "},"ń":{"ha":914,"x_min":0,"x_max":0,"o":"m 472 1100 l 339 857 l 547 857 l 782 1100 z m 547 778 b 342 678 460 778 390 744 l 342 750 l 86 750 l 86 0 l 350 0 l 350 413 b 471 568 350 514 403 568 b 574 446 536 568 574 518 l 574 0 l 838 0 l 838 481 b 547 778 838 669 726 778 z "},"ň":{"ha":914,"x_min":0,"x_max":0,"o":"m 772 1100 l 539 1100 l 457 1006 l 374 1100 l 140 1100 l 336 857 l 578 857 z m 547 778 b 342 678 460 778 390 744 l 342 750 l 86 750 l 86 0 l 350 0 l 350 413 b 471 568 350 514 403 568 b 574 446 536 568 574 518 l 574 0 l 838 0 l 838 481 b 547 778 838 669 726 778 z "},"ņ":{"ha":914,"x_min":0,"x_max":0,"o":"m 547 778 b 342 678 460 778 390 744 l 342 750 l 86 750 l 86 0 l 350 0 l 350 413 b 471 568 350 514 403 568 b 574 446 536 568 574 518 l 574 0 l 838 0 l 838 481 b 547 778 838 669 726 778 z m 486 -319 l 578 -83 l 336 -83 l 300 -319 z "},"ñ":{"ha":914,"x_min":0,"x_max":0,"o":"m 378 931 b 578 850 436 931 449 850 b 785 1099 708 850 785 929 l 592 1099 b 536 1029 588 1053 576 1029 b 336 1110 478 1029 465 1110 b 129 861 206 1110 129 1031 l 322 861 b 378 931 326 907 338 931 z m 547 778 b 342 678 460 778 390 744 l 342 750 l 86 750 l 86 0 l 350 0 l 350 413 b 471 568 350 514 403 568 b 574 446 536 568 574 518 l 574 0 l 838 0 l 838 481 b 547 778 838 669 726 778 z "},"o":{"ha":922,"x_min":0,"x_max":0,"o":"m 461 -28 b 881 375 711 -28 881 143 b 461 778 881 607 711 778 b 42 375 211 778 42 607 b 461 -28 42 143 211 -28 z m 461 182 b 313 375 365 182 313 251 b 461 568 313 499 365 568 b 610 375 557 568 610 499 b 461 182 610 251 557 182 z "},"ó":{"ha":922,"x_min":0,"x_max":0,"o":"m 551 857 l 786 1100 l 476 1100 l 343 857 z m 461 -28 b 881 375 711 -28 881 143 b 461 778 881 607 711 778 b 42 375 211 778 42 607 b 461 -28 42 143 211 -28 z m 461 182 b 313 375 365 182 313 251 b 461 568 313 499 365 568 b 610 375 557 568 610 499 b 461 182 610 251 557 182 z "},"ŏ":{"ha":922,"x_min":0,"x_max":0,"o":"m 457 850 b 750 1096 646 850 750 935 l 540 1096 b 461 1013 538 1033 510 1013 b 379 1096 411 1013 382 1033 l 172 1096 b 457 850 172 935 293 850 z m 461 -28 b 881 375 711 -28 881 143 b 461 778 881 607 711 778 b 42 375 211 778 42 607 b 461 -28 42 143 211 -28 z m 461 182 b 313 375 365 182 313 251 b 461 568 313 499 365 568 b 610 375 557 568 610 499 b 461 182 610 251 557 182 z "},"ǒ":{"ha":922,"x_min":0,"x_max":0,"o":"m 776 1100 l 543 1100 l 461 1006 l 378 1100 l 144 1100 l 340 857 l 582 857 z m 461 778 b 42 375 211 778 42 607 b 461 -28 42 143 211 -28 b 881 375 711 -28 881 143 b 461 778 881 607 711 778 z m 461 182 b 313 375 365 182 313 251 b 461 568 313 499 365 568 b 610 375 557 568 610 499 b 461 182 610 251 557 182 z "},"ô":{"ha":922,"x_min":0,"x_max":0,"o":"m 543 857 l 776 857 l 582 1100 l 340 1100 l 144 857 l 378 857 l 461 951 z m 461 778 b 42 375 211 778 42 607 b 461 -28 42 143 211 -28 b 881 375 711 -28 881 143 b 461 778 881 607 711 778 z m 461 182 b 313 375 365 182 313 251 b 461 568 313 499 365 568 b 610 375 557 568 610 499 b 461 182 610 251 557 182 z "},"ö":{"ha":922,"x_min":0,"x_max":0,"o":"m 268 849 b 401 976 340 849 401 904 b 268 1106 401 1050 343 1106 b 135 976 193 1106 135 1050 b 268 849 135 904 193 849 z m 654 849 b 786 976 725 849 786 904 b 654 1106 786 1050 728 1106 b 519 976 578 1106 519 1050 b 654 849 519 904 578 849 z m 461 -28 b 881 375 711 -28 881 143 b 461 778 881 607 711 778 b 42 375 211 778 42 607 b 461 -28 42 143 211 -28 z m 461 182 b 313 375 365 182 313 251 b 461 568 313 499 365 568 b 610 375 557 568 610 499 b 461 182 610 251 557 182 z "},"ọ":{"ha":922,"x_min":0,"x_max":0,"o":"m 461 -28 b 881 375 711 -28 881 143 b 461 778 881 607 711 778 b 42 375 211 778 42 607 b 461 -28 42 143 211 -28 z m 461 182 b 313 375 365 182 313 251 b 461 568 313 499 365 568 b 610 375 557 568 610 499 b 461 182 610 251 557 182 z m 461 -372 b 610 -229 542 -372 610 -311 b 461 -85 610 -146 544 -85 b 311 -229 376 -85 311 -146 b 461 -372 311 -311 376 -372 z "},"ò":{"ha":922,"x_min":0,"x_max":0,"o":"m 579 857 l 451 1100 l 142 1100 l 371 857 z m 461 -28 b 881 375 711 -28 881 143 b 461 778 881 607 711 778 b 42 375 211 778 42 607 b 461 -28 42 143 211 -28 z m 461 182 b 313 375 365 182 313 251 b 461 568 313 499 365 568 b 610 375 557 568 610 499 b 461 182 610 251 557 182 z "},"ő":{"ha":922,"x_min":0,"x_max":0,"o":"m 411 857 l 531 1100 l 290 1100 l 231 857 z m 706 857 l 857 1100 l 617 1100 l 525 857 z m 461 -28 b 881 375 711 -28 881 143 b 461 778 881 607 711 778 b 42 375 211 778 42 607 b 461 -28 42 143 211 -28 z m 461 182 b 313 375 365 182 313 251 b 461 568 313 499 365 568 b 610 375 557 568 610 499 b 461 182 610 251 557 182 z "},"ō":{"ha":922,"x_min":0,"x_max":0,"o":"m 739 857 l 739 1038 l 183 1038 l 183 857 z m 461 -28 b 881 375 711 -28 881 143 b 461 778 881 607 711 778 b 42 375 211 778 42 607 b 461 -28 42 143 211 -28 z m 461 182 b 313 375 365 182 313 251 b 461 568 313 499 365 568 b 610 375 557 568 610 499 b 461 182 610 251 557 182 z "},"ø":{"ha":922,"x_min":0,"x_max":0,"o":"m 679 750 l 664 733 b 461 778 606 763 538 778 b 42 375 211 778 42 607 b 131 117 42 275 74 185 l 29 0 l 243 0 l 257 17 b 461 -28 317 -12 385 -28 b 881 375 711 -28 881 143 b 792 633 881 476 849 565 l 893 750 z m 461 568 b 519 558 483 568 503 564 l 317 321 b 313 375 314 338 313 356 b 461 568 313 499 365 568 z m 461 182 b 403 192 439 182 419 186 l 606 429 b 610 375 608 413 610 394 b 461 182 610 251 557 182 z "},"õ":{"ha":922,"x_min":0,"x_max":0,"o":"m 582 850 b 789 1099 713 850 789 929 l 596 1099 b 540 1029 592 1053 581 1029 b 340 1110 482 1029 469 1110 b 133 861 210 1110 133 1031 l 326 861 b 382 931 331 907 342 931 b 582 850 440 931 453 850 z m 461 -28 b 881 375 711 -28 881 143 b 461 778 881 607 711 778 b 42 375 211 778 42 607 b 461 -28 42 143 211 -28 z m 461 182 b 313 375 365 182 313 251 b 461 568 313 499 365 568 b 610 375 557 568 610 499 b 461 182 610 251 557 182 z "},"œ":{"ha":1426,"x_min":0,"x_max":0,"o":"m 990 778 b 726 671 888 778 794 739 b 461 778 661 739 569 778 b 42 375 211 778 42 607 b 461 -28 42 143 211 -28 b 725 78 569 -28 660 11 b 999 -28 794 11 889 -28 b 1375 219 1188 -28 1325 72 l 1114 219 b 997 168 1092 188 1051 168 b 849 296 919 168 864 218 l 1381 296 b 990 778 1415 569 1260 778 z m 990 582 b 1132 460 1072 582 1119 533 l 849 460 b 990 582 863 532 917 582 z m 461 182 b 313 375 365 182 313 251 b 461 568 313 499 365 568 b 610 375 557 568 610 499 b 461 182 610 251 557 182 z "},"p":{"ha":960,"x_min":0,"x_max":0,"o":"m 561 774 b 342 685 467 774 394 740 l 342 750 l 86 750 l 86 -250 l 350 -250 l 350 57 b 560 -24 401 6 472 -24 b 918 379 781 -24 918 149 b 561 774 918 628 760 774 z m 499 182 b 350 375 403 182 350 251 b 499 568 350 499 403 568 b 647 375 594 568 647 499 b 499 182 647 251 594 182 z "},"þ":{"ha":960,"x_min":0,"x_max":0,"o":"m 561 774 b 350 693 472 774 401 744 l 350 1007 l 86 1007 l 86 -250 l 350 -250 l 350 57 b 560 -24 401 6 472 -24 b 918 379 781 -24 918 149 b 561 774 918 628 760 774 z m 499 182 b 350 375 403 182 350 251 b 499 568 350 499 403 568 b 647 375 594 568 647 499 b 499 182 647 251 594 182 z "},"q":{"ha":960,"x_min":0,"x_max":0,"o":"m 618 685 b 399 774 565 740 493 774 b 42 379 200 774 42 628 b 400 -24 42 149 179 -24 b 610 57 488 -24 558 6 l 610 -250 l 874 -250 l 874 750 l 618 750 z m 461 182 b 313 375 365 182 313 251 b 461 568 313 499 365 568 b 610 375 557 568 610 499 b 461 182 610 251 557 182 z "},"r":{"ha":625,"x_min":0,"x_max":0,"o":"m 563 761 b 342 658 467 761 390 725 l 342 750 l 86 750 l 86 0 l 350 0 l 350 374 b 544 522 350 496 400 522 l 604 522 l 604 758 b 563 761 592 761 578 761 z "},"ŕ":{"ha":625,"x_min":0,"x_max":0,"o":"m 328 1100 l 194 857 l 403 857 l 638 1100 z m 342 750 l 86 750 l 86 0 l 350 0 l 350 374 b 544 522 350 496 400 522 l 604 522 l 604 758 b 563 761 592 761 578 761 b 342 658 467 761 390 725 z "},"ř":{"ha":625,"x_min":0,"x_max":0,"o":"m 628 1100 l 394 1100 l 313 1006 l 229 1100 l -4 1100 l 192 857 l 433 857 z m 342 750 l 86 750 l 86 0 l 350 0 l 350 374 b 544 522 350 496 400 522 l 604 522 l 604 758 b 563 761 592 761 578 761 b 342 658 467 761 390 725 z "},"ŗ":{"ha":625,"x_min":0,"x_max":0,"o":"m 563 761 b 342 658 467 761 390 725 l 342 750 l 86 750 l 86 0 l 350 0 l 350 374 b 544 522 350 496 400 522 l 604 522 l 604 758 b 563 761 592 761 578 761 z m 247 -319 l 339 -83 l 97 -83 l 61 -319 z "},"s":{"ha":817,"x_min":0,"x_max":0,"o":"m 418 -28 b 775 242 618 -28 775 65 b 528 483 775 390 696 469 l 411 493 b 317 547 356 497 317 508 b 400 592 317 578 349 592 b 506 531 464 592 496 569 l 760 531 b 407 778 746 688 596 778 b 54 501 206 778 54 674 b 288 281 54 363 154 293 l 411 269 b 515 213 486 263 515 243 b 418 161 515 178 479 161 b 292 235 347 161 308 185 l 33 235 b 418 -28 54 64 219 -28 z "},"ś":{"ha":817,"x_min":0,"x_max":0,"o":"m 496 857 l 731 1100 l 421 1100 l 288 857 z m 418 -28 b 775 242 618 -28 775 65 b 528 483 775 390 696 469 l 411 493 b 317 547 356 497 317 508 b 400 592 317 578 349 592 b 506 531 464 592 496 569 l 760 531 b 407 778 746 688 596 778 b 54 501 206 778 54 674 b 288 281 54 363 154 293 l 411 269 b 515 213 486 263 515 243 b 418 161 515 178 479 161 b 292 235 347 161 308 185 l 33 235 b 418 -28 54 64 219 -28 z "},"š":{"ha":817,"x_min":0,"x_max":0,"o":"m 721 1100 l 488 1100 l 406 1006 l 322 1100 l 89 1100 l 285 857 l 526 857 z m 411 493 b 317 547 356 497 317 508 b 400 592 317 578 349 592 b 506 531 464 592 496 569 l 760 531 b 407 778 746 688 596 778 b 54 501 206 778 54 674 b 288 281 54 363 154 293 l 411 269 b 515 213 486 263 515 243 b 418 161 515 178 479 161 b 292 235 347 161 308 185 l 33 235 b 418 -28 54 64 219 -28 b 775 242 618 -28 775 65 b 528 483 775 390 696 469 z "},"ş":{"ha":817,"x_min":0,"x_max":0,"o":"m 775 242 b 528 483 775 390 696 469 l 411 493 b 317 547 356 497 317 508 b 400 592 317 578 349 592 b 506 531 464 592 496 569 l 760 531 b 407 778 746 688 596 778 b 54 501 206 778 54 674 b 288 281 54 363 154 293 l 411 269 b 515 213 486 263 515 243 b 418 161 515 178 479 161 b 292 235 347 161 308 185 l 33 235 b 338 -22 51 88 176 -1 l 301 -75 l 329 -132 l 343 -132 b 383 -158 372 -132 383 -140 b 338 -183 383 -176 367 -183 b 281 -181 317 -183 307 -183 l 281 -287 b 365 -294 308 -293 338 -294 b 558 -169 504 -294 558 -249 b 443 -64 558 -111 510 -74 l 472 -25 b 775 242 646 -10 775 82 z "},"ŝ":{"ha":817,"x_min":0,"x_max":0,"o":"m 488 857 l 721 857 l 526 1100 l 285 1100 l 89 857 l 322 857 l 406 951 z m 411 493 b 317 547 356 497 317 508 b 400 592 317 578 349 592 b 506 531 464 592 496 569 l 760 531 b 407 778 746 688 596 778 b 54 501 206 778 54 674 b 288 281 54 363 154 293 l 411 269 b 515 213 486 263 515 243 b 418 161 515 178 479 161 b 292 235 347 161 308 185 l 33 235 b 418 -28 54 64 219 -28 b 775 242 618 -28 775 65 b 528 483 775 390 696 469 z "},"ș":{"ha":817,"x_min":0,"x_max":0,"o":"m 418 -28 b 775 242 618 -28 775 65 b 528 483 775 390 696 469 l 411 493 b 317 547 356 497 317 508 b 400 592 317 578 349 592 b 506 531 464 592 496 569 l 760 531 b 407 778 746 688 596 778 b 54 501 206 778 54 674 b 288 281 54 363 154 293 l 411 269 b 515 213 486 263 515 243 b 418 161 515 178 479 161 b 292 235 347 161 308 185 l 33 235 b 418 -28 54 64 219 -28 z m 435 -319 l 526 -83 l 285 -83 l 249 -319 z "},"ß":{"ha":942,"x_min":0,"x_max":0,"o":"m 722 539 b 861 754 810 579 861 651 b 474 1028 861 926 713 1028 b 86 703 251 1028 86 940 l 86 0 l 350 0 l 350 685 b 472 819 350 779 394 819 b 592 719 554 819 592 775 b 494 618 592 660 556 618 l 444 618 l 444 415 l 526 415 b 631 313 592 415 631 374 b 513 208 631 249 586 208 l 444 208 l 444 0 l 542 0 b 900 281 746 0 900 99 b 722 539 900 404 831 497 z "},"t":{"ha":664,"x_min":0,"x_max":0,"o":"m 511 222 b 424 296 444 222 424 225 l 424 542 l 613 542 l 613 750 l 424 750 l 424 942 l 160 942 l 160 750 l 21 750 l 21 542 l 160 542 l 160 267 b 460 0 160 76 229 0 l 629 0 l 629 222 z "},"ť":{"ha":664,"x_min":0,"x_max":0,"o":"m 479 799 l 674 799 l 711 1007 l 485 1007 z m 424 542 l 613 542 l 613 750 l 424 750 l 424 942 l 160 942 l 160 750 l 21 750 l 21 542 l 160 542 l 160 267 b 460 0 160 76 229 0 l 629 0 l 629 222 l 511 222 b 424 296 444 222 424 225 z "},"ţ":{"ha":664,"x_min":0,"x_max":0,"o":"m 629 222 l 511 222 b 424 296 444 222 424 225 l 424 542 l 613 542 l 613 750 l 424 750 l 424 942 l 160 942 l 160 750 l 21 750 l 21 542 l 160 542 l 160 267 b 339 10 160 115 204 35 l 281 -75 l 308 -132 l 322 -132 b 363 -158 351 -132 363 -140 b 317 -183 363 -176 346 -183 b 260 -181 296 -183 286 -183 l 260 -287 b 344 -294 288 -293 317 -294 b 538 -169 483 -294 538 -249 b 422 -64 538 -111 489 -74 l 471 0 l 629 0 z "},"ț":{"ha":664,"x_min":0,"x_max":0,"o":"m 511 222 b 424 296 444 222 424 225 l 424 542 l 613 542 l 613 750 l 424 750 l 424 942 l 160 942 l 160 750 l 21 750 l 21 542 l 160 542 l 160 267 b 460 0 160 76 229 0 l 629 0 l 629 222 z m 414 -319 l 506 -83 l 264 -83 l 228 -319 z "},"u":{"ha":907,"x_min":0,"x_max":0,"o":"m 557 338 b 439 182 557 236 506 182 b 340 304 376 182 340 232 l 340 750 l 76 750 l 76 269 b 363 -28 76 81 186 -28 b 565 72 449 -28 517 6 l 565 0 l 821 0 l 821 750 l 557 750 z "},"ú":{"ha":907,"x_min":0,"x_max":0,"o":"m 469 1100 l 336 857 l 544 857 l 779 1100 z m 557 338 b 439 182 557 236 506 182 b 340 304 376 182 340 232 l 340 750 l 76 750 l 76 269 b 363 -28 76 81 186 -28 b 565 72 449 -28 517 6 l 565 0 l 821 0 l 821 750 l 557 750 z "},"ŭ":{"ha":907,"x_min":0,"x_max":0,"o":"m 450 850 b 743 1096 639 850 743 935 l 533 1096 b 454 1013 531 1033 503 1013 b 372 1096 404 1013 375 1033 l 165 1096 b 450 850 165 935 286 850 z m 557 338 b 439 182 557 236 506 182 b 340 304 376 182 340 232 l 340 750 l 76 750 l 76 269 b 363 -28 76 81 186 -28 b 565 72 449 -28 517 6 l 565 0 l 821 0 l 821 750 l 557 750 z "},"ǔ":{"ha":907,"x_min":0,"x_max":0,"o":"m 769 1100 l 536 1100 l 454 1006 l 371 1100 l 138 1100 l 333 857 l 575 857 z m 557 338 b 439 182 557 236 506 182 b 340 304 376 182 340 232 l 340 750 l 76 750 l 76 269 b 363 -28 76 81 186 -28 b 565 72 449 -28 517 6 l 565 0 l 821 0 l 821 750 l 557 750 z "},"û":{"ha":907,"x_min":0,"x_max":0,"o":"m 536 857 l 769 857 l 575 1100 l 333 1100 l 138 857 l 371 857 l 454 951 z m 557 338 b 439 182 557 236 506 182 b 340 304 376 182 340 232 l 340 750 l 76 750 l 76 269 b 363 -28 76 81 186 -28 b 565 72 449 -28 517 6 l 565 0 l 821 0 l 821 750 l 557 750 z "},"ü":{"ha":907,"x_min":0,"x_max":0,"o":"m 261 849 b 394 976 333 849 394 904 b 261 1106 394 1050 336 1106 b 128 976 186 1106 128 1050 b 261 849 128 904 186 849 z m 647 849 b 779 976 718 849 779 904 b 647 1106 779 1050 721 1106 b 513 976 571 1106 513 1050 b 647 849 513 904 571 849 z m 557 338 b 439 182 557 236 506 182 b 340 304 376 182 340 232 l 340 750 l 76 750 l 76 269 b 363 -28 76 81 186 -28 b 565 72 449 -28 517 6 l 565 0 l 821 0 l 821 750 l 557 750 z "},"ụ":{"ha":907,"x_min":0,"x_max":0,"o":"m 557 338 b 439 182 557 236 506 182 b 340 304 376 182 340 232 l 340 750 l 76 750 l 76 269 b 363 -28 76 81 186 -28 b 565 72 449 -28 517 6 l 565 0 l 821 0 l 821 750 l 557 750 z m 454 -85 b 304 -229 369 -85 304 -146 b 454 -372 304 -311 369 -372 b 603 -229 535 -372 603 -311 b 454 -85 603 -146 538 -85 z "},"ù":{"ha":907,"x_min":0,"x_max":0,"o":"m 444 1100 l 135 1100 l 364 857 l 572 857 z m 557 338 b 439 182 557 236 506 182 b 340 304 376 182 340 232 l 340 750 l 76 750 l 76 269 b 363 -28 76 81 186 -28 b 565 72 449 -28 517 6 l 565 0 l 821 0 l 821 750 l 557 750 z "},"ű":{"ha":907,"x_min":0,"x_max":0,"o":"m 283 1100 l 224 857 l 404 857 l 524 1100 z m 850 1100 l 610 1100 l 518 857 l 699 857 z m 557 338 b 439 182 557 236 506 182 b 340 304 376 182 340 232 l 340 750 l 76 750 l 76 269 b 363 -28 76 81 186 -28 b 565 72 449 -28 517 6 l 565 0 l 821 0 l 821 750 l 557 750 z "},"ū":{"ha":907,"x_min":0,"x_max":0,"o":"m 176 1038 l 176 857 l 732 857 l 732 1038 z m 557 338 b 439 182 557 236 506 182 b 340 304 376 182 340 232 l 340 750 l 76 750 l 76 269 b 363 -28 76 81 186 -28 b 565 72 449 -28 517 6 l 565 0 l 821 0 l 821 750 l 557 750 z "},"ų":{"ha":907,"x_min":0,"x_max":0,"o":"m 557 338 b 439 182 557 236 506 182 b 340 304 376 182 340 232 l 340 750 l 76 750 l 76 269 b 363 -28 76 81 186 -28 b 565 72 449 -28 517 6 l 565 1 b 474 -165 504 -47 474 -101 b 650 -299 474 -240 528 -299 b 760 -286 686 -299 724 -296 l 760 -156 l 742 -156 b 678 -114 700 -156 678 -142 b 760 0 678 -68 708 -26 l 821 0 l 821 750 l 557 750 z "},"ů":{"ha":907,"x_min":0,"x_max":0,"o":"m 454 850 b 647 1035 567 850 647 926 b 454 1218 647 1142 567 1218 b 260 1035 340 1218 260 1142 b 454 850 260 926 340 850 z m 454 1099 b 518 1035 492 1099 518 1072 b 454 969 518 997 492 969 b 389 1035 417 969 389 997 b 454 1099 389 1072 417 1099 z m 557 338 b 439 182 557 236 506 182 b 340 304 376 182 340 232 l 340 750 l 76 750 l 76 269 b 363 -28 76 81 186 -28 b 565 72 449 -28 517 6 l 565 0 l 821 0 l 821 750 l 557 750 z "},"ũ":{"ha":907,"x_min":0,"x_max":0,"o":"m 375 931 b 575 850 433 931 446 850 b 782 1099 706 850 782 929 l 589 1099 b 533 1029 585 1053 574 1029 b 333 1110 475 1029 463 1110 b 126 861 203 1110 126 1031 l 319 861 b 375 931 324 907 335 931 z m 557 338 b 439 182 557 236 506 182 b 340 304 376 182 340 232 l 340 750 l 76 750 l 76 269 b 363 -28 76 81 186 -28 b 565 72 449 -28 517 6 l 565 0 l 821 0 l 821 750 l 557 750 z "},"v":{"ha":844,"x_min":0,"x_max":0,"o":"m 426 308 l 281 750 l 7 750 l 292 0 l 556 0 l 838 750 l 568 750 z "},"w":{"ha":1260,"x_min":0,"x_max":0,"o":"m 886 319 l 719 750 l 544 750 l 386 322 l 267 750 l 7 750 l 246 0 l 494 0 l 629 349 l 765 0 l 1014 0 l 1253 750 l 996 750 z "},"ẃ":{"ha":1260,"x_min":0,"x_max":0,"o":"m 646 1100 l 513 857 l 721 857 l 956 1100 z m 886 319 l 719 750 l 544 750 l 386 322 l 267 750 l 7 750 l 246 0 l 494 0 l 629 349 l 765 0 l 1014 0 l 1253 750 l 996 750 z "},"ŵ":{"ha":1260,"x_min":0,"x_max":0,"o":"m 713 857 l 946 857 l 751 1100 l 510 1100 l 314 857 l 547 857 l 631 951 z m 886 319 l 719 750 l 544 750 l 386 322 l 267 750 l 7 750 l 246 0 l 494 0 l 629 349 l 765 0 l 1014 0 l 1253 750 l 996 750 z "},"ẅ":{"ha":1260,"x_min":0,"x_max":0,"o":"m 438 849 b 571 976 510 849 571 904 b 438 1106 571 1050 513 1106 b 304 976 363 1106 304 1050 b 438 849 304 904 363 849 z m 824 849 b 956 976 894 849 956 904 b 824 1106 956 1050 897 1106 b 689 976 747 1106 689 1050 b 824 849 689 904 747 849 z m 886 319 l 719 750 l 544 750 l 386 322 l 267 750 l 7 750 l 246 0 l 494 0 l 629 349 l 765 0 l 1014 0 l 1253 750 l 996 750 z "},"ẁ":{"ha":1260,"x_min":0,"x_max":0,"o":"m 621 1100 l 311 1100 l 540 857 l 749 857 z m 886 319 l 719 750 l 544 750 l 386 322 l 267 750 l 7 750 l 246 0 l 494 0 l 629 349 l 765 0 l 1014 0 l 1253 750 l 996 750 z "},"x":{"ha":818,"x_min":0,"x_max":0,"o":"m 556 388 l 785 750 l 514 750 l 407 565 l 288 750 l 7 750 l 247 385 l 13 0 l 283 0 l 403 206 l 536 0 l 811 0 z "},"y":{"ha":844,"x_min":0,"x_max":0,"o":"m 426 308 l 281 750 l 7 750 l 296 8 l 194 -250 l 454 -250 l 838 750 l 568 750 z "},"ý":{"ha":844,"x_min":0,"x_max":0,"o":"m 438 1100 l 304 857 l 513 857 l 747 1100 z m 426 308 l 281 750 l 7 750 l 296 8 l 194 -250 l 454 -250 l 838 750 l 568 750 z "},"ŷ":{"ha":844,"x_min":0,"x_max":0,"o":"m 504 857 l 738 857 l 543 1100 l 301 1100 l 106 857 l 339 857 l 422 951 z m 426 308 l 281 750 l 7 750 l 296 8 l 194 -250 l 454 -250 l 838 750 l 568 750 z "},"ÿ":{"ha":844,"x_min":0,"x_max":0,"o":"m 229 849 b 363 976 301 849 363 904 b 229 1106 363 1050 304 1106 b 96 976 154 1106 96 1050 b 229 849 96 904 154 849 z m 615 849 b 747 976 686 849 747 904 b 615 1106 747 1050 689 1106 b 481 976 539 1106 481 1050 b 615 849 481 904 539 849 z m 426 308 l 281 750 l 7 750 l 296 8 l 194 -250 l 454 -250 l 838 750 l 568 750 z "},"ỳ":{"ha":844,"x_min":0,"x_max":0,"o":"m 413 1100 l 103 1100 l 332 857 l 540 857 z m 426 308 l 281 750 l 7 750 l 296 8 l 194 -250 l 454 -250 l 838 750 l 568 750 z "},"ȳ":{"ha":844,"x_min":0,"x_max":0,"o":"m 144 1038 l 144 857 l 700 857 l 700 1038 z m 426 308 l 281 750 l 7 750 l 296 8 l 194 -250 l 454 -250 l 838 750 l 568 750 z "},"ỹ":{"ha":844,"x_min":0,"x_max":0,"o":"m 343 931 b 543 850 401 931 414 850 b 750 1099 674 850 750 929 l 557 1099 b 501 1029 553 1053 542 1029 b 301 1110 443 1029 431 1110 b 94 861 171 1110 94 1031 l 288 861 b 343 931 292 907 303 931 z m 426 308 l 281 750 l 7 750 l 296 8 l 194 -250 l 454 -250 l 838 750 l 568 750 z "},"z":{"ha":788,"x_min":0,"x_max":0,"o":"m 725 601 l 725 750 l 64 750 l 64 547 l 385 547 l 49 149 l 49 0 l 739 0 l 739 206 l 388 206 z "},"ź":{"ha":788,"x_min":0,"x_max":0,"o":"m 410 1100 l 276 857 l 485 857 l 719 1100 z m 725 601 l 725 750 l 64 750 l 64 547 l 385 547 l 49 149 l 49 0 l 739 0 l 739 206 l 388 206 z "},"ž":{"ha":788,"x_min":0,"x_max":0,"o":"m 710 1100 l 476 1100 l 394 1006 l 311 1100 l 78 1100 l 274 857 l 515 857 z m 725 601 l 725 750 l 64 750 l 64 547 l 385 547 l 49 149 l 49 0 l 739 0 l 739 206 l 388 206 z "},"ż":{"ha":788,"x_min":0,"x_max":0,"o":"m 394 850 b 543 993 475 850 543 911 b 394 1138 543 1076 478 1138 b 244 993 310 1138 244 1076 b 394 850 244 911 310 850 z m 725 601 l 725 750 l 64 750 l 64 547 l 385 547 l 49 149 l 49 0 l 739 0 l 739 206 l 388 206 z "},"ﬁ":{"ha":1076,"x_min":0,"x_max":0,"o":"m 858 850 b 1007 993 939 850 1007 911 b 858 1138 1007 1076 942 1138 b 708 993 774 1138 708 1076 b 858 850 708 911 774 850 z m 160 750 l 21 750 l 21 542 l 160 542 l 160 0 l 424 0 l 424 542 l 610 542 l 610 750 l 425 750 b 497 799 429 790 449 799 l 624 799 l 624 1007 l 460 1007 b 160 758 229 1007 160 926 z m 990 0 l 990 750 l 726 750 l 726 0 z "},"ﬂ":{"ha":1076,"x_min":0,"x_max":0,"o":"m 160 750 l 21 750 l 21 542 l 160 542 l 160 0 l 424 0 l 424 542 l 610 542 l 610 750 l 425 750 b 497 799 429 790 449 799 l 624 799 l 624 1007 l 460 1007 b 160 758 229 1007 160 926 z m 726 0 l 990 0 l 990 1007 l 726 1007 z "},"ª":{"ha":625,"x_min":0,"x_max":0,"o":"m 575 472 b 567 607 571 513 567 563 l 567 817 b 306 1028 567 949 478 1028 b 46 844 154 1028 60 967 l 232 844 b 308 890 239 867 257 890 b 381 825 357 890 381 867 l 381 819 b 332 814 365 817 349 815 l 225 803 b 29 635 107 790 29 739 b 233 457 29 529 110 457 b 401 526 303 457 361 479 l 406 472 z m 275 590 b 211 642 235 590 211 613 b 254 681 211 674 239 679 l 332 689 b 381 701 350 690 367 694 l 381 679 b 275 590 381 626 335 590 z "},"º":{"ha":657,"x_min":0,"x_max":0,"o":"m 329 451 b 628 740 506 451 628 575 b 329 1028 628 906 507 1028 b 29 740 151 1028 29 906 b 329 451 29 575 151 451 z m 329 601 b 222 740 260 601 222 654 b 329 878 222 826 260 878 b 435 740 397 878 435 828 b 329 601 435 651 397 601 z "},"Δ":{"ha":1089,"x_min":0,"x_max":0,"o":"m 408 1007 l 7 0 l 1082 0 l 681 1007 z m 714 229 l 368 229 l 540 692 z "},"Ω":{"ha":1192,"x_min":0,"x_max":0,"o":"m 994 222 b 1135 536 1081 299 1135 407 b 596 1035 1135 829 894 1035 b 57 536 297 1035 57 829 b 197 222 57 407 111 299 l 49 222 l 49 0 l 526 0 l 526 217 b 342 518 407 274 342 354 b 597 804 342 694 440 804 b 850 518 753 804 850 694 b 665 217 850 354 785 274 l 665 0 l 1143 0 l 1143 222 z "},"μ":{"ha":917,"x_min":0,"x_max":0,"o":"m 567 338 b 449 182 567 236 515 182 b 350 304 386 182 350 232 l 350 750 l 86 750 l 86 -250 l 340 -250 l 340 -25 b 372 -28 351 -26 361 -28 b 575 72 458 -28 526 6 l 575 0 l 831 0 l 831 750 l 567 750 z "},"π":{"ha":983,"x_min":0,"x_max":0,"o":"m 949 750 l 21 750 l 21 542 l 129 542 l 129 0 l 393 0 l 393 542 l 576 542 l 576 267 b 876 0 576 76 646 0 l 949 0 l 949 222 l 928 222 b 840 296 861 222 840 225 l 840 542 l 949 542 z "},"₀":{"ha":601,"x_min":0,"x_max":0,"o":"m 301 -190 b 567 104 464 -190 567 -76 b 301 397 567 285 464 397 b 35 104 139 397 35 285 b 301 -190 35 -76 139 -190 z m 301 -36 b 228 104 253 -36 228 11 b 301 243 228 196 253 243 b 375 104 350 243 375 194 b 301 -36 375 13 350 -36 z "},"₁":{"ha":428,"x_min":0,"x_max":0,"o":"m 31 265 l 31 79 l 181 174 l 181 -174 l 368 -174 l 368 381 l 201 381 z "},"₂":{"ha":515,"x_min":0,"x_max":0,"o":"m 315 -35 b 481 211 397 33 481 107 b 253 397 481 328 382 397 b 28 201 118 397 39 324 l 200 201 b 257 253 207 235 229 253 b 297 214 288 253 297 232 b 186 78 297 178 258 140 l 33 -54 l 33 -174 l 483 -174 l 483 -35 z "},"₃":{"ha":533,"x_min":0,"x_max":0,"o":"m 490 261 l 490 381 l 42 381 l 42 242 l 256 242 l 135 138 l 200 35 b 258 49 222 44 244 49 b 314 -3 294 49 314 26 b 267 -50 314 -37 292 -50 b 206 -1 240 -50 218 -32 l 25 -1 b 268 -190 44 -114 126 -190 b 499 -6 407 -190 499 -117 b 358 156 499 72 450 136 z "},"₄":{"ha":572,"x_min":0,"x_max":0,"o":"m 458 38 l 458 381 l 283 381 l 31 36 l 31 -101 l 299 -101 l 299 -174 l 458 -174 l 458 -101 l 542 -101 l 542 38 z m 299 174 l 299 38 l 199 38 z "},"₅":{"ha":550,"x_min":0,"x_max":0,"o":"m 311 197 b 233 186 282 197 256 193 l 242 242 l 496 242 l 496 381 l 100 381 l 56 79 l 194 31 b 276 60 213 49 249 60 b 336 4 319 60 336 35 b 283 -47 336 -29 317 -47 b 217 -3 251 -47 226 -26 l 32 -3 b 285 -186 63 -133 165 -186 b 522 13 429 -186 522 -108 b 311 197 522 124 442 197 z "},"₆":{"ha":569,"x_min":0,"x_max":0,"o":"m 314 208 b 210 178 274 208 238 197 b 301 267 221 235 251 267 b 351 242 322 267 339 258 l 525 242 b 300 397 496 339 422 397 b 35 103 131 397 35 282 b 294 -190 35 -82 129 -190 b 538 6 435 -190 538 -112 b 314 208 538 135 429 208 z m 293 -46 b 225 11 250 -46 225 -22 b 293 71 225 46 251 71 b 358 13 332 71 358 46 b 293 -46 358 -21 333 -46 z "},"₇":{"ha":510,"x_min":0,"x_max":0,"o":"m 28 242 l 276 242 l 68 -174 l 269 -174 l 482 263 l 482 381 l 28 381 z "},"₈":{"ha":547,"x_min":0,"x_max":0,"o":"m 431 117 b 500 238 475 144 500 185 b 274 397 500 336 413 397 b 47 238 135 397 47 336 b 117 117 47 186 72 144 b 28 -18 58 90 28 44 b 274 -190 28 -131 114 -190 b 519 -18 436 -190 519 -129 b 431 117 519 44 489 90 z m 274 268 b 338 221 313 268 338 250 b 274 174 338 190 314 174 b 210 221 232 174 210 192 b 274 268 210 250 236 268 z m 274 -60 b 214 -7 238 -60 214 -40 b 274 49 214 28 238 49 b 335 -7 311 49 335 26 b 274 -60 335 -40 310 -60 z "},"₉":{"ha":569,"x_min":0,"x_max":0,"o":"m 275 397 b 32 200 136 397 32 319 b 256 -1 32 71 142 -1 b 360 29 296 -1 332 10 b 269 -58 349 -28 319 -58 b 219 -35 249 -58 232 -50 l 44 -35 b 269 -190 72 -129 144 -190 b 535 104 439 -190 535 -76 b 275 397 535 289 440 397 z m 278 136 b 211 194 238 136 211 161 b 278 253 211 228 238 253 b 344 196 319 253 344 229 b 278 136 344 161 319 136 z "},"⁰":{"ha":601,"x_min":0,"x_max":0,"o":"m 301 735 b 567 1029 464 735 567 849 b 301 1322 567 1210 464 1322 b 35 1029 139 1322 35 1210 b 301 735 35 849 139 735 z m 301 889 b 228 1029 253 889 228 936 b 301 1168 228 1121 253 1168 b 375 1029 350 1168 375 1119 b 301 889 375 938 350 889 z "},"¹":{"ha":428,"x_min":0,"x_max":0,"o":"m 31 1190 l 31 1004 l 181 1099 l 181 751 l 368 751 l 368 1306 l 201 1306 z "},"²":{"ha":515,"x_min":0,"x_max":0,"o":"m 315 890 b 481 1136 397 958 481 1032 b 253 1322 481 1253 382 1322 b 28 1126 118 1322 39 1249 l 200 1126 b 257 1178 207 1160 229 1178 b 297 1139 288 1178 297 1157 b 186 1003 297 1103 258 1065 l 33 871 l 33 751 l 483 751 l 483 890 z "},"³":{"ha":533,"x_min":0,"x_max":0,"o":"m 490 1186 l 490 1306 l 42 1306 l 42 1167 l 256 1167 l 135 1063 l 200 960 b 258 974 222 969 244 974 b 314 922 294 974 314 951 b 267 875 314 888 292 875 b 206 924 240 875 218 893 l 25 924 b 268 735 44 811 126 735 b 499 919 407 735 499 808 b 358 1081 499 997 450 1061 z "},"⁴":{"ha":572,"x_min":0,"x_max":0,"o":"m 458 963 l 458 1306 l 283 1306 l 31 961 l 31 824 l 299 824 l 299 751 l 458 751 l 458 824 l 542 824 l 542 963 z m 299 1099 l 299 963 l 199 963 z "},"⁵":{"ha":550,"x_min":0,"x_max":0,"o":"m 311 1122 b 233 1111 282 1122 256 1118 l 242 1167 l 496 1167 l 496 1306 l 100 1306 l 56 1004 l 194 956 b 276 985 213 974 249 985 b 336 929 319 985 336 960 b 283 878 336 896 317 878 b 217 922 251 878 226 899 l 32 922 b 285 739 63 792 165 739 b 522 938 429 739 522 817 b 311 1122 522 1049 442 1122 z "},"⁶":{"ha":569,"x_min":0,"x_max":0,"o":"m 314 1133 b 210 1103 274 1133 238 1122 b 301 1192 221 1160 251 1192 b 351 1167 322 1192 339 1183 l 525 1167 b 300 1322 496 1264 422 1322 b 35 1028 131 1322 35 1207 b 294 735 35 843 129 735 b 538 931 435 735 538 813 b 314 1133 538 1060 429 1133 z m 293 879 b 225 936 250 879 225 903 b 293 996 225 971 251 996 b 358 938 332 996 358 971 b 293 879 358 904 333 879 z "},"⁷":{"ha":510,"x_min":0,"x_max":0,"o":"m 28 1167 l 276 1167 l 68 751 l 269 751 l 482 1188 l 482 1306 l 28 1306 z "},"⁸":{"ha":547,"x_min":0,"x_max":0,"o":"m 431 1042 b 500 1163 475 1069 500 1110 b 274 1322 500 1261 413 1322 b 47 1163 135 1322 47 1261 b 117 1042 47 1111 72 1069 b 28 907 58 1015 28 969 b 274 735 28 794 114 735 b 519 907 436 735 519 796 b 431 1042 519 969 489 1015 z m 274 1193 b 338 1146 313 1193 338 1175 b 274 1099 338 1115 314 1099 b 210 1146 232 1099 210 1117 b 274 1193 210 1175 236 1193 z m 274 865 b 214 918 238 865 214 885 b 274 974 214 953 238 974 b 335 918 311 974 335 951 b 274 865 335 885 310 865 z "},"⁹":{"ha":569,"x_min":0,"x_max":0,"o":"m 275 1322 b 32 1125 136 1322 32 1244 b 256 924 32 996 142 924 b 360 954 296 924 332 935 b 269 867 349 897 319 867 b 219 890 249 867 232 875 l 44 890 b 269 735 72 796 144 735 b 535 1029 439 735 535 849 b 275 1322 535 1214 440 1322 z m 278 1061 b 211 1119 238 1061 211 1086 b 278 1178 211 1153 238 1178 b 344 1121 319 1178 344 1154 b 278 1061 344 1086 319 1061 z "},"⁄":{"ha":185,"x_min":0,"x_max":0,"o":"m -143 0 l 532 1007 l 328 1007 l -347 0 z "},"½":{"ha":1197,"x_min":0,"x_max":0,"o":"m 368 453 l 368 1007 l 201 1007 l 31 892 l 31 706 l 181 800 l 181 453 z m 122 0 l 326 0 l 1001 1007 l 797 1007 z m 997 139 b 1163 385 1079 207 1163 281 b 935 571 1163 501 1064 571 b 710 375 800 571 721 497 l 882 375 b 939 426 889 408 911 426 b 979 388 969 426 979 406 b 868 251 979 351 940 314 l 715 119 l 715 0 l 1165 0 l 1165 139 z "},"¼":{"ha":1157,"x_min":0,"x_max":0,"o":"m 368 453 l 368 1007 l 201 1007 l 31 892 l 31 706 l 181 800 l 181 453 z m 122 0 l 326 0 l 1001 1007 l 797 1007 z m 1043 211 l 1043 554 l 868 554 l 615 210 l 615 72 l 883 72 l 883 0 l 1043 0 l 1043 72 l 1126 72 l 1126 211 z m 883 347 l 883 211 l 783 211 z "},"¾":{"ha":1249,"x_min":0,"x_max":0,"o":"m 499 621 b 358 782 499 699 450 763 l 490 888 l 490 1007 l 42 1007 l 42 868 l 256 868 l 135 764 l 200 661 b 258 675 222 671 244 675 b 314 624 294 675 314 653 b 267 576 314 589 292 576 b 206 625 240 576 218 594 l 25 625 b 268 436 44 513 126 436 b 499 621 407 436 499 510 z m 214 0 l 418 0 l 1093 1007 l 889 1007 z m 1135 211 l 1135 554 l 960 554 l 707 210 l 707 72 l 975 72 l 975 0 l 1135 0 l 1135 72 l 1218 72 l 1218 211 z m 975 347 l 975 211 l 875 211 z "},".":{"ha":410,"x_min":0,"x_max":0,"o":"m 206 -11 b 354 132 286 -11 354 50 b 206 276 354 215 289 276 b 56 132 121 276 56 215 b 206 -11 56 50 121 -11 z "},",":{"ha":424,"x_min":0,"x_max":0,"o":"m 221 -181 l 368 236 l 106 236 l 28 -181 z "},":":{"ha":410,"x_min":0,"x_max":0,"o":"m 206 475 b 354 618 286 475 354 536 b 206 763 354 701 289 763 b 56 618 121 763 56 701 b 206 475 56 536 121 475 z m 206 -11 b 354 132 286 -11 354 50 b 206 276 354 215 289 276 b 56 132 121 276 56 215 b 206 -11 56 50 121 -11 z "},";":{"ha":438,"x_min":0,"x_max":0,"o":"m 233 475 b 382 618 314 475 382 536 b 233 763 382 701 317 763 b 83 618 149 763 83 701 b 233 475 83 536 149 475 z m 228 -181 l 375 236 l 106 236 l 28 -181 z "},"…":{"ha":1171,"x_min":0,"x_max":0,"o":"m 206 -11 b 354 132 286 -11 354 50 b 206 276 354 215 289 276 b 56 132 121 276 56 215 b 206 -11 56 50 121 -11 z m 586 -11 b 735 132 667 -11 735 50 b 586 276 735 215 669 276 b 436 132 501 276 436 215 b 586 -11 436 50 501 -11 z m 967 -11 b 1115 132 1047 -11 1115 50 b 967 276 1115 215 1050 276 b 817 132 882 276 817 215 b 967 -11 817 50 882 -11 z "},"!":{"ha":438,"x_min":0,"x_max":0,"o":"m 329 353 l 358 1007 l 81 1007 l 110 353 z m 219 -11 b 368 132 300 -11 368 50 b 219 276 368 215 303 276 b 69 132 135 276 69 215 b 219 -11 69 50 135 -11 z "},"¡":{"ha":438,"x_min":0,"x_max":0,"o":"m 218 768 b 69 625 138 768 69 707 b 218 481 69 542 135 481 b 368 625 303 481 368 542 b 218 768 368 707 303 768 z m 108 404 l 79 -250 l 357 -250 l 328 404 z "},"?":{"ha":824,"x_min":0,"x_max":0,"o":"m 514 353 l 514 368 b 789 728 514 496 789 503 b 410 1035 789 913 639 1035 b 22 678 172 1035 15 901 l 278 678 b 406 806 282 761 333 806 b 518 706 475 806 518 763 b 275 368 518 596 275 572 l 275 353 z m 394 -11 b 543 132 475 -11 543 50 b 394 276 543 215 478 276 b 244 132 310 276 244 215 b 394 -11 244 50 310 -11 z "},"¿":{"ha":824,"x_min":0,"x_max":0,"o":"m 429 768 b 281 625 349 768 281 707 b 429 481 281 542 346 481 b 579 625 514 481 579 542 b 429 768 579 707 514 768 z m 310 404 l 310 389 b 35 29 310 261 35 254 b 414 -278 35 -156 185 -278 b 801 79 651 -278 808 -144 l 546 79 b 418 -49 542 -4 490 -49 b 306 51 349 -49 306 -6 b 549 389 306 161 549 185 l 549 404 z "},"·":{"ha":410,"x_min":0,"x_max":0,"o":"m 206 336 b 354 479 286 336 354 397 b 206 624 354 563 289 624 b 56 479 121 624 56 563 b 206 336 56 397 121 336 z "},"•":{"ha":563,"x_min":0,"x_max":0,"o":"m 281 268 b 500 486 407 268 500 360 b 281 704 500 613 407 704 b 63 486 156 704 63 613 b 281 268 63 360 156 268 z "},"*":{"ha":675,"x_min":0,"x_max":0,"o":"m 338 607 l 400 446 l 560 540 l 444 667 l 619 647 l 619 832 l 444 813 l 560 940 l 399 1035 l 338 872 l 275 1035 l 117 938 l 231 813 l 56 832 l 56 647 l 231 667 l 117 542 l 276 446 z "},"#":{"ha":1179,"x_min":0,"x_max":0,"o":"m 1124 765 l 911 765 l 963 1007 l 781 1007 l 729 765 l 560 765 l 611 1007 l 429 1007 l 378 765 l 167 765 l 131 597 l 343 597 l 303 408 l 92 408 l 56 242 l 268 242 l 217 0 l 399 0 l 450 242 l 619 242 l 568 0 l 750 0 l 801 242 l 1014 242 l 1050 408 l 836 408 l 876 597 l 1089 597 z m 485 408 l 525 597 l 694 597 l 654 408 z "},"/":{"ha":947,"x_min":0,"x_max":0,"o":"m 324 0 l 919 1007 l 624 1007 l 28 0 z "},"\\":{"ha":947,"x_min":0,"x_max":0,"o":"m 324 1007 l 28 1007 l 624 0 l 919 0 z "},"(":{"ha":578,"x_min":0,"x_max":0,"o":"m 564 -250 b 326 494 404 -6 326 233 b 564 1238 326 754 404 997 l 275 1238 b 49 494 122 1010 49 754 b 275 -250 49 233 122 -17 z "},")":{"ha":578,"x_min":0,"x_max":0,"o":"m 303 -250 b 529 494 456 -17 529 233 b 303 1238 529 754 456 1010 l 14 1238 b 251 494 174 997 251 754 b 14 -250 251 233 174 -6 z "},"{":{"ha":632,"x_min":0,"x_max":0,"o":"m 604 -250 l 604 -19 l 540 -19 b 415 86 442 -19 415 10 l 415 243 b 301 494 415 386 404 454 b 415 746 404 535 415 603 l 415 901 b 540 1007 415 978 442 1007 l 604 1007 l 604 1238 l 451 1238 b 151 939 156 1238 151 1050 l 151 732 b 43 614 151 643 142 614 l 14 614 l 14 375 l 43 375 b 151 257 142 375 151 346 l 151 49 b 451 -250 151 -62 156 -250 z "},"}":{"ha":632,"x_min":0,"x_max":0,"o":"m 181 -250 b 481 49 476 -250 481 -62 l 481 257 b 589 375 481 346 490 375 l 618 375 l 618 614 l 589 614 b 481 732 490 614 481 643 l 481 939 b 181 1238 481 1050 476 1238 l 28 1238 l 28 1007 l 92 1007 b 217 901 190 1007 217 978 l 217 746 b 331 494 217 603 228 535 b 217 243 228 454 217 386 l 217 86 b 92 -19 217 10 190 -19 l 28 -19 l 28 -250 z "},"[":{"ha":564,"x_min":0,"x_max":0,"o":"m 536 -250 l 536 -19 l 354 -19 l 354 1007 l 536 1007 l 536 1238 l 90 1238 l 90 -250 z "},"]":{"ha":564,"x_min":0,"x_max":0,"o":"m 474 1238 l 28 1238 l 28 1007 l 210 1007 l 210 -19 l 28 -19 l 28 -250 l 474 -250 z "},"-":{"ha":639,"x_min":0,"x_max":0,"o":"m 569 318 l 569 540 l 69 540 l 69 318 z "},"­":{"ha":639,"x_min":0,"x_max":0,"o":"m 569 318 l 569 540 l 69 540 l 69 318 z "},"–":{"ha":889,"x_min":0,"x_max":0,"o":"m 819 318 l 819 540 l 69 540 l 69 318 z "},"—":{"ha":1208,"x_min":0,"x_max":0,"o":"m 1153 318 l 1153 540 l 56 540 l 56 318 z "},"_":{"ha":639,"x_min":0,"x_max":0,"o":"m 639 -257 l 639 -49 l 0 -49 l 0 -257 z "},"‚":{"ha":374,"x_min":0,"x_max":0,"o":"m 244 -181 l 311 229 l 76 229 l 63 -181 z "},"„":{"ha":665,"x_min":0,"x_max":0,"o":"m 244 -181 l 311 229 l 76 229 l 63 -181 z m 536 -181 l 603 229 l 368 229 l 354 -181 z "},"“":{"ha":665,"x_min":0,"x_max":0,"o":"m 297 597 l 311 1007 l 129 1007 l 63 597 z m 589 597 l 603 1007 l 421 1007 l 354 597 z "},"”":{"ha":665,"x_min":0,"x_max":0,"o":"m 244 597 l 311 1007 l 76 1007 l 63 597 z m 536 597 l 603 1007 l 368 1007 l 354 597 z "},"‘":{"ha":374,"x_min":0,"x_max":0,"o":"m 297 597 l 311 1007 l 129 1007 l 63 597 z "},"’":{"ha":374,"x_min":0,"x_max":0,"o":"m 244 597 l 311 1007 l 76 1007 l 63 597 z "},"«":{"ha":850,"x_min":0,"x_max":0,"o":"m 222 682 l 35 372 l 222 63 l 461 63 l 285 372 l 461 682 z m 569 682 l 382 372 l 569 63 l 808 63 l 632 372 l 808 682 z "},"»":{"ha":850,"x_min":0,"x_max":0,"o":"m 42 682 l 218 372 l 42 63 l 281 63 l 468 372 l 281 682 z m 389 682 l 565 372 l 389 63 l 628 63 l 815 372 l 628 682 z "},"‹":{"ha":503,"x_min":0,"x_max":0,"o":"m 222 682 l 35 372 l 222 63 l 461 63 l 285 372 l 461 682 z "},"›":{"ha":503,"x_min":0,"x_max":0,"o":"m 42 682 l 218 372 l 42 63 l 281 63 l 468 372 l 281 682 z "},"\"":{"ha":613,"x_min":0,"x_max":0,"o":"m 250 642 l 278 1007 l 42 1007 l 69 642 z m 543 642 l 571 1007 l 335 1007 l 363 642 z "},"'":{"ha":319,"x_min":0,"x_max":0,"o":"m 250 642 l 278 1007 l 42 1007 l 69 642 z "}," ":{"ha":308,"x_min":0,"x_max":0,"o":""}," ":{"ha":1389,"x_min":0,"x_max":0,"o":""}," ":{"ha":1389,"x_min":0,"x_max":0,"o":""}," ":{"ha":694,"x_min":0,"x_max":0,"o":""}," ":{"ha":694,"x_min":0,"x_max":0,"o":""}," ":{"ha":981,"x_min":0,"x_max":0,"o":""}," ":{"ha":347,"x_min":0,"x_max":0,"o":""}," ":{"ha":97,"x_min":0,"x_max":0,"o":""}," ":{"ha":50,"x_min":0,"x_max":0,"o":""}," ":{"ha":410,"x_min":0,"x_max":0,"o":""}," ":{"ha":231,"x_min":0,"x_max":0,"o":""}," ":{"ha":250,"x_min":0,"x_max":0,"o":""}," ":{"ha":174,"x_min":0,"x_max":0,"o":""}," ":{"ha":463,"x_min":0,"x_max":0,"o":""},"​":{"ha":0,"x_min":0,"x_max":0,"o":""},"¢":{"ha":871,"x_min":0,"x_max":0,"o":"m 531 553 b 586 499 554 542 574 522 l 836 499 b 531 772 800 643 682 747 l 531 917 l 378 917 l 378 771 b 42 375 174 738 42 581 b 378 -21 42 169 174 13 l 378 -167 l 531 -167 l 531 -22 b 835 238 681 1 799 99 l 581 238 b 531 196 568 219 551 206 z m 313 375 b 378 544 313 456 335 514 l 378 206 b 313 375 335 236 313 294 z "},"¤":{"ha":842,"x_min":0,"x_max":0,"o":"m 267 222 b 422 181 311 196 365 181 b 575 221 479 181 531 194 l 669 126 l 786 243 l 694 338 b 735 492 725 386 735 432 b 694 647 735 550 722 601 l 786 739 l 668 856 l 578 764 b 422 806 531 792 478 806 b 265 763 364 806 314 790 l 175 857 l 57 740 l 150 646 b 111 492 125 601 111 550 b 151 339 111 435 121 388 l 56 243 l 172 126 z m 422 350 b 279 492 343 350 279 415 b 422 635 279 571 343 635 b 564 492 501 635 564 572 b 422 350 564 414 500 350 z "},"$":{"ha":929,"x_min":0,"x_max":0,"o":"m 894 321 b 583 618 894 475 814 590 l 542 624 l 542 806 b 615 714 579 788 604 757 l 876 714 b 542 1029 844 892 728 1004 l 542 1174 l 389 1174 l 389 1029 b 46 692 181 1004 46 878 b 340 397 46 518 168 419 l 389 392 l 389 199 b 293 301 347 215 310 246 l 22 301 b 389 -22 56 101 193 -1 l 389 -167 l 542 -167 l 542 -22 b 894 321 757 0 894 119 z m 325 719 b 389 807 325 757 347 789 l 389 646 b 325 719 356 657 325 678 z m 542 368 b 617 288 582 357 617 336 b 542 196 617 240 585 211 z "},"€":{"ha":1061,"x_min":0,"x_max":0,"o":"m 581 203 b 417 297 510 203 454 238 l 554 297 l 590 464 l 369 464 b 368 504 368 476 368 490 b 369 533 368 514 368 524 l 604 533 l 640 700 l 411 700 b 581 804 447 767 506 804 b 753 692 660 804 718 763 l 1019 692 b 581 1035 971 900 806 1035 b 140 700 371 1035 206 901 l 28 700 l 28 533 l 111 533 l 111 504 b 113 464 111 490 111 478 l 29 464 l 29 297 l 144 297 b 582 -28 211 101 372 -28 b 1019 313 806 -28 969 106 l 750 313 b 581 203 715 244 658 203 z "},"ƒ":{"ha":815,"x_min":0,"x_max":0,"o":"m 799 796 l 799 1007 l 608 1007 b 329 806 446 1007 356 956 l 310 696 l 147 696 l 147 486 l 272 486 l 194 43 b 88 -39 185 -14 153 -39 l -26 -39 l -26 -250 l 172 -250 b 443 -49 326 -250 417 -200 l 538 486 l 744 486 l 744 696 l 575 696 l 578 714 b 685 796 588 771 619 796 z "},"£":{"ha":864,"x_min":0,"x_max":0,"o":"m 404 229 b 460 358 442 268 457 314 l 603 358 l 603 588 l 386 588 b 358 700 371 625 358 664 b 454 801 358 769 392 801 b 556 721 510 801 540 767 l 811 721 b 444 1032 788 911 669 1032 b 78 733 224 1032 78 926 b 113 588 78 676 93 631 l 24 588 l 24 358 l 192 358 b 22 226 185 296 122 226 l 22 0 l 815 0 l 815 229 z "},"¥":{"ha":989,"x_min":0,"x_max":0,"o":"m 686 1007 l 506 657 l 318 1007 l 7 1007 l 253 574 l 113 574 l 113 379 l 356 379 l 356 300 l 113 300 l 113 106 l 356 106 l 356 0 l 633 0 l 633 106 l 876 106 l 876 300 l 633 300 l 633 379 l 876 379 l 876 574 l 736 574 l 982 1007 z "},"+":{"ha":903,"x_min":0,"x_max":0,"o":"m 563 625 l 563 826 l 340 826 l 340 625 l 132 625 l 132 417 l 340 417 l 340 215 l 563 215 l 563 417 l 771 417 l 771 625 z "},"−":{"ha":903,"x_min":0,"x_max":0,"o":"m 771 417 l 771 625 l 132 625 l 132 417 z "},"×":{"ha":903,"x_min":0,"x_max":0,"o":"m 621 835 l 453 667 l 285 835 l 138 689 l 306 521 l 138 353 l 285 207 l 453 375 l 621 207 l 767 353 l 599 521 l 767 689 z "},"÷":{"ha":903,"x_min":0,"x_max":0,"o":"m 453 688 b 589 819 528 688 589 743 b 453 951 589 894 529 951 b 315 819 375 951 315 894 b 453 688 315 743 375 688 z m 771 417 l 771 625 l 132 625 l 132 417 z m 453 90 b 589 222 528 90 589 146 b 453 354 589 297 529 354 b 315 222 375 354 315 297 b 453 90 315 146 375 90 z "},"=":{"ha":903,"x_min":0,"x_max":0,"o":"m 771 556 l 771 764 l 132 764 l 132 556 z m 771 264 l 771 472 l 132 472 l 132 264 z "},"≠":{"ha":903,"x_min":0,"x_max":0,"o":"m 771 764 l 683 764 l 736 861 l 542 861 l 489 764 l 132 764 l 132 556 l 376 556 l 332 472 l 132 472 l 132 264 l 219 264 l 167 167 l 361 167 l 414 264 l 771 264 l 771 472 l 526 472 l 571 556 l 771 556 z "},">":{"ha":903,"x_min":0,"x_max":0,"o":"m 132 668 l 543 522 l 132 376 l 132 128 l 778 383 l 778 661 l 132 914 z "},"<":{"ha":903,"x_min":0,"x_max":0,"o":"m 125 661 l 125 383 l 771 128 l 771 376 l 360 522 l 771 668 l 771 914 z "},"≥":{"ha":903,"x_min":0,"x_max":0,"o":"m 132 710 l 518 606 l 132 501 l 132 253 l 778 467 l 778 744 l 132 956 z m 778 0 l 778 208 l 132 208 l 132 0 z "},"≤":{"ha":903,"x_min":0,"x_max":0,"o":"m 125 744 l 125 467 l 771 253 l 771 501 l 385 606 l 771 710 l 771 956 z m 771 0 l 771 208 l 125 208 l 125 0 z "},"±":{"ha":903,"x_min":0,"x_max":0,"o":"m 563 882 l 340 882 l 340 707 l 132 707 l 132 499 l 340 499 l 340 319 l 563 319 l 563 499 l 771 499 l 771 707 l 563 707 z m 771 0 l 771 208 l 132 208 l 132 0 z "},"≈":{"ha":903,"x_min":0,"x_max":0,"o":"m 574 544 b 786 807 706 544 786 628 l 600 807 b 551 738 596 761 585 738 b 329 818 490 738 458 818 b 117 556 197 818 117 735 l 303 556 b 351 625 307 601 318 625 b 574 544 413 625 444 544 z m 574 225 b 786 488 706 225 786 308 l 600 488 b 551 418 596 442 585 418 b 329 499 490 418 458 499 b 117 236 197 499 117 415 l 303 236 b 351 306 307 282 318 306 b 574 225 413 306 444 225 z "},"¬":{"ha":903,"x_min":0,"x_max":0,"o":"m 771 229 l 771 646 l 132 646 l 132 438 l 549 438 l 549 229 z "},"~":{"ha":781,"x_min":0,"x_max":0,"o":"m 513 374 b 725 636 644 374 725 457 l 539 636 b 490 567 535 590 524 567 b 268 647 429 567 397 647 b 56 385 136 647 56 564 l 242 385 b 290 454 246 431 257 454 b 513 374 351 454 383 374 z "},"^":{"ha":688,"x_min":0,"x_max":0,"o":"m 479 1007 l 210 1007 l 56 625 l 268 625 l 344 804 l 419 625 l 632 625 z "},"∅":{"ha":722,"x_min":0,"x_max":0,"o":"m 663 717 l 600 779 l 543 722 b 361 782 492 760 429 782 b 56 476 192 782 56 646 b 115 294 56 408 78 346 l 58 238 l 121 175 l 178 232 b 361 171 229 193 292 171 b 667 476 531 171 667 307 b 606 660 667 546 644 608 z m 168 478 b 361 674 168 586 254 674 b 464 643 399 674 435 663 l 196 375 b 168 478 178 406 168 440 z m 361 279 b 257 311 322 279 286 290 l 525 579 b 553 478 543 550 553 515 b 361 279 553 368 467 279 z "},"∞":{"ha":986,"x_min":0,"x_max":0,"o":"m 715 739 b 479 628 606 739 535 688 b 264 739 425 699 346 739 b 56 514 138 739 56 649 b 271 299 56 382 133 299 b 506 411 379 299 450 350 b 721 299 563 338 639 299 b 931 524 849 299 931 390 b 715 739 931 656 851 739 z m 285 447 b 214 517 242 447 214 478 b 288 590 214 564 242 590 b 393 522 328 590 358 571 b 285 447 358 479 326 447 z m 700 447 b 592 517 653 447 621 476 b 701 590 626 558 660 590 b 772 515 742 590 772 561 b 700 447 772 474 746 447 z "},"∫":{"ha":815,"x_min":0,"x_max":0,"o":"m 172 -250 b 443 -49 326 -250 417 -200 l 578 714 b 685 796 588 771 619 796 l 799 796 l 799 1007 l 608 1007 b 329 806 446 1007 356 956 l 194 43 b 88 -39 185 -14 153 -39 l -26 -39 l -26 -250 z "},"∏":{"ha":1239,"x_min":0,"x_max":0,"o":"m 35 1007 l 35 778 l 203 778 l 203 0 l 481 0 l 481 778 l 758 778 l 758 0 l 1036 0 l 1036 778 l 1204 778 l 1204 1007 z "},"∑":{"ha":875,"x_min":0,"x_max":0,"o":"m 599 504 l 360 799 l 803 799 l 803 1007 l 49 1007 l 49 811 l 304 506 l 46 196 l 46 0 l 806 0 l 806 208 l 356 208 z "},"√":{"ha":871,"x_min":0,"x_max":0,"o":"m 563 1007 l 351 219 l 258 500 l 7 500 l 208 0 l 519 0 l 742 799 l 899 799 l 899 1007 z "},"µ":{"ha":917,"x_min":0,"x_max":0,"o":"m 567 338 b 449 182 567 236 515 182 b 350 304 386 182 350 232 l 350 750 l 86 750 l 86 -250 l 340 -250 l 340 -25 b 372 -28 351 -26 361 -28 b 575 72 458 -28 526 6 l 575 0 l 831 0 l 831 750 l 567 750 z "},"∂":{"ha":932,"x_min":0,"x_max":0,"o":"m 488 1035 b 94 754 288 1035 158 929 l 353 754 b 469 818 382 796 422 818 b 629 622 568 818 621 749 b 436 685 579 661 514 685 b 35 292 238 685 35 538 b 406 -28 35 97 186 -28 b 883 578 721 -28 883 238 b 488 1035 883 860 743 1035 z m 426 189 b 303 318 349 189 303 242 b 451 479 303 411 365 479 b 579 351 531 479 579 428 b 426 189 579 257 518 189 z "},"%":{"ha":1339,"x_min":0,"x_max":0,"o":"m 301 464 b 567 744 464 464 567 578 b 301 1024 567 917 464 1024 b 35 744 139 1024 35 917 b 301 464 35 578 139 464 z m 433 0 l 1108 1007 l 904 1007 l 229 0 z m 301 618 b 228 744 253 618 228 661 b 301 869 228 826 253 869 b 375 744 350 869 375 826 b 301 618 375 663 350 618 z m 1039 -17 b 1304 264 1201 -17 1304 97 b 1039 543 1304 436 1201 543 b 772 264 876 543 772 436 b 1039 -17 772 97 876 -17 z m 1039 138 b 965 264 990 138 965 181 b 1039 389 965 346 990 389 b 1113 264 1088 389 1113 346 b 1039 138 1113 182 1088 138 z "},"‰":{"ha":1943,"x_min":0,"x_max":0,"o":"m 301 464 b 567 744 464 464 567 578 b 301 1024 567 917 464 1024 b 35 744 139 1024 35 917 b 301 464 35 578 139 464 z m 433 0 l 1108 1007 l 904 1007 l 229 0 z m 301 618 b 228 744 253 618 228 661 b 301 869 228 826 253 869 b 375 744 350 869 375 826 b 301 618 375 663 350 618 z m 1039 -17 b 1304 264 1201 -17 1304 97 b 1039 543 1304 436 1201 543 b 772 264 876 543 772 436 b 1039 -17 772 97 876 -17 z m 1643 -17 b 1908 264 1806 -17 1908 97 b 1643 543 1908 436 1806 543 b 1376 264 1481 543 1376 436 b 1643 -17 1376 97 1481 -17 z m 1039 138 b 965 264 990 138 965 181 b 1039 389 965 346 990 389 b 1113 264 1088 389 1113 346 b 1039 138 1113 182 1088 138 z m 1643 138 b 1569 264 1594 138 1569 181 b 1643 389 1569 346 1594 389 b 1717 264 1692 389 1717 346 b 1643 138 1717 182 1692 138 z "},"↑":{"ha":1185,"x_min":0,"x_max":0,"o":"m 593 1035 l 132 575 l 293 413 l 468 590 l 468 0 l 718 0 l 718 590 l 894 413 l 1053 575 z "},"↗":{"ha":1085,"x_min":0,"x_max":0,"o":"m 300 693 l 550 694 l 132 278 l 310 100 l 726 518 l 725 268 l 953 271 l 953 921 l 301 922 z "},"→":{"ha":1299,"x_min":0,"x_max":0,"o":"m 544 810 l 722 635 l 132 635 l 132 385 l 722 385 l 544 208 l 707 50 l 1167 510 l 707 971 z "},"↘":{"ha":1086,"x_min":0,"x_max":0,"o":"m 726 504 l 310 922 l 132 744 l 550 328 l 300 329 l 303 101 l 953 101 l 954 753 l 725 754 z "},"↓":{"ha":1185,"x_min":0,"x_max":0,"o":"m 717 417 l 717 1007 l 467 1007 l 467 417 l 290 594 l 132 432 l 592 -28 l 1053 432 l 892 594 z "},"↙":{"ha":1085,"x_min":0,"x_max":0,"o":"m 775 922 l 358 504 l 360 754 l 132 751 l 132 101 l 783 100 l 785 329 l 535 328 l 953 744 z "},"←":{"ha":1299,"x_min":0,"x_max":0,"o":"m 576 636 l 754 813 l 592 971 l 132 511 l 592 50 l 754 211 l 576 386 l 1167 386 l 1167 636 z "},"↖":{"ha":1086,"x_min":0,"x_max":0,"o":"m 536 694 l 786 693 l 783 921 l 133 921 l 132 269 l 361 268 l 360 518 l 776 100 l 954 278 z "},"↔":{"ha":1326,"x_min":0,"x_max":0,"o":"m 711 783 l 857 614 l 469 614 l 615 783 l 481 914 l 132 510 l 481 104 l 615 238 l 471 406 l 856 406 l 711 238 l 846 104 l 1194 510 l 846 914 z "},"↕":{"ha":1074,"x_min":0,"x_max":0,"o":"m 642 697 l 811 551 l 942 686 l 538 1035 l 132 686 l 265 551 l 433 696 l 433 311 l 265 456 l 132 321 l 538 -28 l 942 321 l 811 456 l 642 310 z "},"◊":{"ha":728,"x_min":0,"x_max":0,"o":"m 296 1007 l 56 504 l 294 0 l 433 0 l 672 504 l 435 1007 z m 213 501 l 363 854 l 517 506 l 367 151 z "},"@":{"ha":1428,"x_min":0,"x_max":0,"o":"m 864 675 l 860 619 b 682 699 822 665 768 699 b 357 335 489 699 357 539 b 625 26 357 156 457 26 b 861 128 738 26 807 71 b 1063 32 897 69 964 32 b 1379 463 1251 32 1379 226 b 744 1035 1379 797 1101 1035 b 49 367 381 1035 49 785 b 753 -278 49 -18 326 -278 b 1119 -210 897 -278 1011 -249 l 1119 -50 b 760 -129 1004 -100 886 -129 b 214 369 432 -129 214 68 b 750 885 214 682 453 885 b 1218 457 1019 885 1218 719 b 1086 181 1218 311 1161 181 b 1040 268 1043 181 1035 207 l 1076 675 z m 696 201 b 582 338 622 201 582 251 b 717 522 582 457 631 522 b 833 388 790 522 833 475 b 696 201 833 268 781 201 z "},"&":{"ha":1104,"x_min":0,"x_max":0,"o":"m 903 185 b 1049 521 976 272 1029 386 l 786 521 b 736 356 776 458 760 403 l 594 500 b 828 789 738 578 828 650 b 476 1035 828 935 689 1035 b 125 781 264 1035 125 926 b 232 557 125 699 175 622 b 22 271 99 485 22 403 b 429 -26 22 96 192 -26 b 726 44 538 -26 639 -3 l 769 0 l 1083 0 z m 478 839 b 565 771 531 839 565 813 b 453 647 565 721 526 690 b 386 768 408 696 386 732 b 478 839 386 811 422 839 z m 446 181 b 300 282 358 181 300 215 b 382 400 300 325 326 360 l 574 203 b 446 181 536 188 493 181 z "},"¶":{"ha":1050,"x_min":0,"x_max":0,"o":"m 449 1007 b 42 664 201 1007 42 872 b 415 332 42 429 246 329 l 415 -250 l 596 -250 l 596 790 l 717 790 l 717 -250 l 897 -250 l 897 790 l 1015 790 l 1015 1007 z "},"§":{"ha":893,"x_min":0,"x_max":0,"o":"m 858 372 b 597 646 858 583 681 628 l 458 676 b 349 761 417 686 349 703 b 439 843 349 810 383 843 b 556 746 503 843 542 807 l 786 746 b 442 1033 757 928 640 1033 b 97 732 224 1033 97 908 b 128 599 97 679 108 635 b 22 383 60 547 22 474 b 232 125 22 224 129 147 l 408 88 b 535 -1 472 74 535 60 b 432 -87 535 -62 485 -87 b 299 17 385 -87 319 -67 l 56 17 b 425 -278 88 -186 225 -278 b 783 24 649 -278 783 -162 b 754 156 783 78 772 121 b 858 372 821 207 858 279 z m 385 329 b 274 411 350 336 274 351 b 304 472 274 436 285 457 l 483 435 b 608 347 550 421 608 408 b 579 286 608 321 597 301 b 524 300 558 293 539 297 z "},"©":{"ha":1157,"x_min":0,"x_max":0,"o":"m 579 -28 b 1108 506 882 -28 1108 200 b 579 1035 1108 808 882 1035 b 49 506 276 1035 49 808 b 579 -28 49 200 276 -28 z m 579 85 b 169 506 346 85 169 264 b 579 921 169 742 346 921 b 988 506 813 921 988 742 b 579 85 988 264 813 85 z m 588 215 b 853 404 717 215 824 290 l 672 404 b 588 365 654 379 626 365 b 481 503 518 365 481 414 b 588 640 481 589 518 640 b 676 589 629 640 660 621 l 854 589 b 588 789 825 708 718 789 b 288 503 407 789 288 667 b 588 215 288 336 407 215 z "},"®":{"ha":719,"x_min":0,"x_max":0,"o":"m 360 1028 b 56 719 186 1028 56 896 b 360 414 56 544 186 414 b 664 719 533 414 664 544 b 360 1028 664 896 533 1028 z m 360 483 b 128 722 228 483 128 585 b 360 958 128 857 228 958 b 592 722 492 958 592 857 b 360 483 592 585 492 483 z m 494 775 b 378 881 494 840 447 881 l 242 881 l 242 564 l 329 564 l 329 669 l 338 669 l 401 564 l 497 564 l 429 676 b 494 775 469 692 494 728 z m 408 774 b 378 738 408 753 394 738 l 329 738 l 329 810 l 378 810 b 408 774 394 810 408 794 z "},"™":{"ha":1217,"x_min":0,"x_max":0,"o":"m 169 865 l 169 504 l 342 504 l 342 865 l 483 865 l 483 1007 l 28 1007 l 28 865 z m 851 772 l 725 1007 l 564 1007 l 564 503 l 728 503 l 728 715 l 804 575 l 899 575 l 969 710 l 969 503 l 1133 503 l 1133 1007 l 972 1007 z "},"°":{"ha":594,"x_min":0,"x_max":0,"o":"m 297 538 b 539 779 444 538 539 632 b 297 1021 539 926 444 1021 b 56 779 150 1021 56 926 b 297 538 56 632 150 538 z m 297 685 b 206 779 242 685 206 722 b 297 874 206 836 242 874 b 389 779 353 874 389 836 b 297 685 389 722 353 685 z "},"|":{"ha":433,"x_min":0,"x_max":0,"o":"m 343 -250 l 343 1007 l 90 1007 l 90 -250 z "},"¦":{"ha":433,"x_min":0,"x_max":0,"o":"m 343 438 l 343 1007 l 90 1007 l 90 438 z m 343 -250 l 343 319 l 90 319 l 90 -250 z "},"†":{"ha":714,"x_min":0,"x_max":0,"o":"m 483 793 l 483 1007 l 231 1007 l 231 793 l 56 793 l 56 586 l 231 586 l 231 -250 l 483 -250 l 483 586 l 658 586 l 658 793 z "},"‡":{"ha":714,"x_min":0,"x_max":0,"o":"m 658 794 l 483 794 l 483 1007 l 231 1007 l 231 794 l 56 794 l 56 586 l 231 586 l 231 171 l 56 171 l 56 -37 l 231 -37 l 231 -250 l 483 -250 l 483 -37 l 658 -37 l 658 171 l 483 171 l 483 586 l 658 586 z "},"℮":{"ha":1228,"x_min":0,"x_max":0,"o":"m 614 0 b 1072 203 824 0 939 57 l 968 203 b 614 40 888 111 756 40 b 263 219 403 40 263 168 l 263 469 b 285 496 263 494 271 496 l 1172 496 b 614 1021 1158 835 944 1021 b 56 510 288 1021 56 815 b 614 0 56 199 288 0 z m 285 528 b 263 540 268 528 263 532 l 263 807 b 613 985 263 851 413 985 b 965 796 771 985 965 876 l 965 551 b 940 528 965 533 961 528 z "},"№":{"ha":1713,"x_min":0,"x_max":0,"o":"m 1385 1028 b 1085 740 1207 1028 1085 906 b 1385 451 1085 575 1207 451 b 1683 740 1561 451 1683 575 b 1385 1028 1683 906 1563 1028 z m 324 1007 l 90 1007 l 90 0 l 343 0 l 343 565 l 733 0 l 965 0 l 965 1007 l 713 1007 l 713 447 z m 1385 601 b 1278 740 1315 601 1278 654 b 1385 878 1278 826 1315 878 b 1490 740 1453 878 1490 828 b 1385 601 1490 651 1453 601 z "},"ʼ":{"ha":319,"x_min":0,"x_max":0,"o":"m 250 642 l 278 1007 l 42 1007 l 69 642 z "},"̈":{"ha":0,"x_min":0,"x_max":0,"o":"m -574 849 b -440 976 -501 849 -440 904 b -574 1106 -440 1050 -499 1106 b -707 976 -649 1106 -707 1050 b -574 849 -707 904 -649 849 z m -187 849 b -56 976 -117 849 -56 904 b -187 1106 -56 1050 -114 1106 b -322 976 -264 1106 -322 1050 b -187 849 -322 904 -264 849 z "},"̇":{"ha":0,"x_min":0,"x_max":0,"o":"m -204 850 b -56 993 -124 850 -56 911 b -204 1138 -56 1076 -121 1138 b -354 993 -289 1138 -354 1076 b -204 850 -354 911 -289 850 z "},"̀":{"ha":0,"x_min":0,"x_max":0,"o":"m -56 857 l -183 1100 l -493 1100 l -264 857 z "},"́":{"ha":0,"x_min":0,"x_max":0,"o":"m -290 857 l -56 1100 l -365 1100 l -499 857 z "},"̋":{"ha":0,"x_min":0,"x_max":0,"o":"m -501 857 l -382 1100 l -622 1100 l -682 857 z m -207 857 l -56 1100 l -296 1100 l -387 857 z "},"̂":{"ha":0,"x_min":0,"x_max":0,"o":"m -250 1100 l -492 1100 l -687 857 l -454 857 l -371 951 l -289 857 l -56 857 z "},"̌":{"ha":0,"x_min":0,"x_max":0,"o":"m -371 1006 l -454 1100 l -687 1100 l -492 857 l -250 857 l -56 1100 l -289 1100 z "},"̆":{"ha":0,"x_min":0,"x_max":0,"o":"m -349 850 b -56 1096 -160 850 -56 935 l -265 1096 b -344 1013 -268 1033 -296 1013 b -426 1096 -394 1013 -424 1033 l -633 1096 b -349 850 -633 935 -512 850 z "},"̊":{"ha":0,"x_min":0,"x_max":0,"o":"m -249 850 b -56 1035 -136 850 -56 926 b -249 1218 -56 1142 -136 1218 b -443 1035 -362 1218 -443 1142 b -249 850 -443 926 -362 850 z m -249 969 b -314 1035 -286 969 -314 997 b -249 1099 -314 1072 -286 1099 b -185 1035 -211 1099 -185 1072 b -249 969 -185 997 -211 969 z "},"̃":{"ha":0,"x_min":0,"x_max":0,"o":"m -262 850 b -56 1099 -132 850 -56 929 l -249 1099 b -304 1029 -253 1053 -264 1029 b -504 1110 -362 1029 -375 1110 b -711 861 -635 1110 -711 1031 l -518 861 b -462 931 -514 907 -503 931 b -262 850 -404 931 -392 850 z "},"̄":{"ha":0,"x_min":0,"x_max":0,"o":"m -56 857 l -56 1038 l -611 1038 l -611 857 z "},"̒":{"ha":0,"x_min":0,"x_max":0,"o":"m -92 857 l -56 1100 l -242 1100 l -333 857 z "},"̣":{"ha":0,"x_min":0,"x_max":0,"o":"m -204 -372 b -56 -229 -124 -372 -56 -311 b -204 -85 -56 -146 -121 -85 b -354 -229 -289 -85 -354 -146 b -204 -372 -354 -311 -289 -372 z "},"̦":{"ha":0,"x_min":0,"x_max":0,"o":"m -147 -319 l -56 -83 l -297 -83 l -333 -319 z "},"̧":{"ha":0,"x_min":0,"x_max":0,"o":"m -122 0 l -217 63 l -312 -75 l -285 -132 l -271 -132 b -231 -158 -242 -132 -231 -140 b -276 -183 -231 -176 -247 -183 b -333 -181 -297 -183 -307 -183 l -333 -287 b -249 -294 -306 -293 -276 -294 b -56 -169 -110 -294 -56 -249 b -171 -64 -56 -111 -104 -74 z "},"̨":{"ha":0,"x_min":0,"x_max":0,"o":"m -165 -299 b -56 -286 -129 -299 -92 -296 l -56 -156 l -74 -156 b -137 -114 -115 -156 -137 -142 b -56 0 -137 -68 -107 -26 l -181 49 b -342 -165 -287 -12 -342 -81 b -165 -299 -342 -240 -287 -299 z "},"¨":{"ha":763,"x_min":0,"x_max":0,"o":"m 189 849 b 322 976 261 849 322 904 b 189 1106 322 1050 264 1106 b 56 976 114 1106 56 1050 b 189 849 56 904 114 849 z m 575 849 b 707 976 646 849 707 904 b 575 1106 707 1050 649 1106 b 440 976 499 1106 440 1050 b 575 849 440 904 499 849 z "},"˙":{"ha":410,"x_min":0,"x_max":0,"o":"m 206 850 b 354 993 286 850 354 911 b 206 1138 354 1076 289 1138 b 56 993 121 1138 56 1076 b 206 850 56 911 121 850 z "},"`":{"ha":549,"x_min":0,"x_max":0,"o":"m 493 857 l 365 1100 l 56 1100 l 285 857 z "},"´":{"ha":554,"x_min":0,"x_max":0,"o":"m 264 857 l 499 1100 l 189 1100 l 56 857 z "},"˝":{"ha":738,"x_min":0,"x_max":0,"o":"m 236 857 l 356 1100 l 115 1100 l 56 857 z m 531 857 l 682 1100 l 442 1100 l 350 857 z "},"ˆ":{"ha":743,"x_min":0,"x_max":0,"o":"m 493 1100 l 251 1100 l 56 857 l 289 857 l 372 951 l 454 857 l 688 857 z "},"ˇ":{"ha":743,"x_min":0,"x_max":0,"o":"m 372 1006 l 289 1100 l 56 1100 l 251 857 l 493 857 l 688 1100 l 454 1100 z "},"˘":{"ha":689,"x_min":0,"x_max":0,"o":"m 340 850 b 633 1096 529 850 633 935 l 424 1096 b 344 1013 421 1033 393 1013 b 263 1096 294 1013 265 1033 l 56 1096 b 340 850 56 935 176 850 z "},"˚":{"ha":499,"x_min":0,"x_max":0,"o":"m 250 850 b 443 1035 363 850 443 926 b 250 1218 443 1142 363 1218 b 56 1035 136 1218 56 1142 b 250 850 56 926 136 850 z m 250 969 b 185 1035 213 969 185 997 b 250 1099 185 1072 213 1099 b 314 1035 288 1099 314 1072 b 250 969 314 997 288 969 z "},"˜":{"ha":767,"x_min":0,"x_max":0,"o":"m 504 850 b 711 1099 635 850 711 929 l 518 1099 b 463 1029 514 1053 503 1029 b 263 1110 404 1029 392 1110 b 56 861 132 1110 56 1031 l 249 861 b 304 931 253 907 264 931 b 504 850 363 931 375 850 z "},"¯":{"ha":667,"x_min":0,"x_max":0,"o":"m 611 857 l 611 1038 l 56 1038 l 56 857 z "},"¸":{"ha":389,"x_min":0,"x_max":0,"o":"m 267 0 l 172 63 l 76 -75 l 104 -132 l 118 -132 b 158 -158 147 -132 158 -140 b 113 -183 158 -176 142 -183 b 56 -181 92 -183 82 -183 l 56 -287 b 140 -294 83 -293 113 -294 b 333 -169 279 -294 333 -249 b 218 -64 333 -111 285 -74 z "},"˛":{"ha":397,"x_min":0,"x_max":0,"o":"m 232 -299 b 342 -286 268 -299 306 -296 l 342 -156 l 324 -156 b 260 -114 282 -156 260 -142 b 342 0 260 -68 290 -26 l 217 49 b 56 -165 110 -12 56 -81 b 232 -299 56 -240 110 -299 z "}}}
